<?xml version="1.0" encoding="utf-8"?>
<!-- Generator: Adobe Illustrator 23.0.1, SVG Export Plug-In . SVG Version: 6.00 Build 0)  -->
<svg version="1.1" xmlns="http://www.w3.org/2000/svg" xmlns:xlink="http://www.w3.org/1999/xlink" x="0px" y="0px"
	 viewBox="0 0 1920 1080" style="enable-background:new 0 0 1920 1080;" xml:space="preserve">
<style type="text/css">
	.st0{fill:#E1D5E4;}
	.st1{fill:#EC8E9B;}
	.st2{fill:#D06489;}
	.st3{fill:#212734;}
	.st4{fill:#FE9209;}
	.st5{fill:#F9F9F9;}
	.st6{fill:#F6F6F6;}
	.st7{fill:#FEF9F6;}
	.st8{fill:#F0AA78;}
	.st9{fill:#DBBB9C;}
	.st10{fill:#B36E5F;}
	.st11{fill:#DC8D74;}
	.st12{fill:#96CA8D;}
	.st13{fill:#392970;}
	.st14{fill:#2D2D2D;}
	.st15{fill:#FFFFFF;}
	.st16{fill:#4C4C4C;}
	.st17{fill:#81A8AD;}
	.st18{fill:#EA2828;}
	.st19{fill:#573B50;}
	.st20{fill:#EAD5B7;}
	.st21{fill:#EACEA0;}
	.st22{fill:#EAD9C1;}
	.st23{fill:#869BA5;}
	.st24{fill:#FFF8F8;}
	.st25{opacity:0.52;fill:#D3D3D3;enable-background:new    ;}
	.st26{fill:#DBB491;}
	.st27{fill:#EADBCE;}
	.st28{fill:#CC8279;}
	.st29{fill:#A05C57;}
	.st30{fill:#D69D99;}
	.st31{fill:#96CE8F;}
	.st32{fill:#C1786F;}
	.st33{fill:#C67A6D;}
	.st34{fill:#D8887C;}
	.st35{fill:#C1655F;}
	.st36{fill:#A5453D;}
	.st37{fill:#01020C;}
	.st38{fill:#A06B67;}
	.st39{fill:#7F3E28;}
	.st40{fill:#D13751;}
	.st41{fill:#8E5750;}
	.st42{fill:#7CCFB3;}
	.st43{fill:#C6704E;}
	.st44{fill:#80A7AD;}
	.st45{fill:#B36E5E;}
	.st46{fill:#B76F65;}
	.st47{fill:#9EC2C6;}
	.st48{fill:none;stroke:#80A7AD;stroke-width:3;stroke-miterlimit:10;}
	.st49{fill:#CEAD97;}
	.st50{fill:#FBF6BE;stroke:#1D1D1B;stroke-miterlimit:10;}
	.st51{fill:#D1D0D1;}
	.st52{fill:#777777;}
	.st53{fill:#A3A2A2;}
	.st54{fill:#E8EAE6;}
	.st55{fill:#171210;}
	.st56{fill:#161412;}
	.st57{fill:#3FBAC5;}
	.st58{fill:#6C646E;}
	.st59{fill:#D5A74D;}
</style>
<g id="Layer_6">
	<rect class="st0" width="1920" height="1080"/>
</g>
<g id="Layer_7">
	<g>
		<path class="st1" d="M368.8,208.3c0-6.8,1.3-13.1,3.8-19c2.5-5.9,6-11,10.5-15.4c4.5-4.4,9.8-7.8,16-10.3c6.2-2.5,13-3.7,20.5-3.7
			c7.4,0,14.2,1.2,20.4,3.7c6.2,2.5,11.6,5.9,16.1,10.3c4.5,4.4,8,9.5,10.5,15.4c2.5,5.9,3.8,12.2,3.8,19c0,6.8-1.3,13.2-3.8,19
			c-2.5,5.9-6,11-10.5,15.4c-4.5,4.4-9.9,7.8-16.1,10.3c-6.2,2.5-13.1,3.7-20.4,3.7c-7.5,0-14.3-1.2-20.5-3.7
			c-6.2-2.5-11.5-5.9-16-10.3c-4.5-4.4-7.9-9.5-10.5-15.4C370,221.4,368.8,215.1,368.8,208.3z M393.7,208.3c0,3.6,0.7,7,2.1,10.1
			c1.4,3.1,3.2,5.8,5.6,8c2.4,2.3,5.1,4,8.2,5.3c3.1,1.3,6.4,1.9,9.9,1.9c3.5,0,6.8-0.6,9.9-1.9c3.1-1.3,5.9-3,8.3-5.3
			c2.4-2.3,4.3-4.9,5.7-8c1.4-3.1,2.1-6.4,2.1-10.1c0-3.6-0.7-7-2.1-10.1c-1.4-3.1-3.3-5.8-5.7-8c-2.4-2.3-5.1-4-8.3-5.3
			c-3.1-1.3-6.4-1.9-9.9-1.9c-3.5,0-6.8,0.6-9.9,1.9c-3.1,1.3-5.9,3-8.2,5.3c-2.4,2.3-4.2,4.9-5.6,8
			C394.4,201.3,393.7,204.6,393.7,208.3z"/>
		<path class="st1" d="M497.4,162.4l22.1,55.8l22.2-55.8h25.9L529,254.1h-19l-38.5-91.7H497.4z"/>
		<path class="st1" d="M629.4,182.6h-28.3V198h26.7v20.2h-26.7v15.8h28.3v20.2h-52.2v-91.7h52.2V182.6z"/>
		<path class="st1" d="M722.8,254.1h-29.7l-22.7-35.3v35.3h-23.8v-91.7h37.1c5.1,0,9.6,0.8,13.4,2.2c3.8,1.5,6.9,3.5,9.4,6.1
			c2.5,2.6,4.3,5.6,5.6,9c1.3,3.4,1.9,7.1,1.9,10.9c0,7-1.7,12.6-5,17c-3.4,4.3-8.3,7.3-14.9,8.8L722.8,254.1z M670.4,203.4h4.5
			c4.7,0,8.3-1,10.8-2.9c2.5-1.9,3.8-4.7,3.8-8.4c0-3.6-1.3-6.4-3.8-8.4c-2.5-1.9-6.1-2.9-10.8-2.9h-4.5V203.4z"/>
		<path class="st1" d="M824.5,185.9c-2.6-2.1-5.2-3.7-7.8-4.7c-2.6-1-5.1-1.5-7.5-1.5c-3.1,0-5.6,0.7-7.5,2.2
			c-1.9,1.5-2.9,3.4-2.9,5.7c0,1.6,0.5,3,1.5,4c1,1.1,2.2,2,3.8,2.7c1.6,0.8,3.4,1.4,5.3,2c2,0.6,4,1.2,5.9,1.8
			c7.8,2.6,13.5,6.1,17.1,10.4c3.6,4.3,5.4,10,5.4,17c0,4.7-0.8,9-2.4,12.8c-1.6,3.8-3.9,7.1-6.9,9.8c-3,2.7-6.8,4.8-11.2,6.3
			c-4.4,1.5-9.4,2.2-15,2.2c-11.6,0-22.3-3.4-32.2-10.3l10.2-19.2c3.6,3.2,7.1,5.5,10.6,7.1c3.5,1.5,6.9,2.3,10.3,2.3
			c3.9,0,6.8-0.9,8.7-2.7c1.9-1.8,2.9-3.8,2.9-6.1c0-1.4-0.2-2.6-0.7-3.6c-0.5-1-1.3-1.9-2.4-2.8c-1.1-0.9-2.6-1.6-4.4-2.4
			c-1.8-0.7-4-1.5-6.6-2.4c-3.1-1-6.1-2-9.1-3.2c-3-1.2-5.6-2.7-7.9-4.7c-2.3-1.9-4.2-4.4-5.6-7.4c-1.4-3-2.1-6.7-2.1-11.2
			c0-4.5,0.7-8.7,2.2-12.3c1.5-3.7,3.6-6.8,6.3-9.5c2.7-2.6,6-4.7,10-6.1c3.9-1.5,8.3-2.2,13.2-2.2c4.5,0,9.3,0.6,14.2,1.9
			c4.9,1.3,9.7,3.1,14.2,5.5L824.5,185.9z"/>
		<path class="st1" d="M888.1,182.6v71.5h-23.8v-71.5h-19.6v-20.2h63v20.2H888.1z"/>
		<path class="st1" d="M994.4,254.1h-29.7L942,218.9v35.3h-23.8v-91.7h37.1c5.1,0,9.6,0.8,13.4,2.2c3.8,1.5,6.9,3.5,9.4,6.1
			c2.5,2.6,4.3,5.6,5.6,9c1.3,3.4,1.9,7.1,1.9,10.9c0,7-1.7,12.6-5,17c-3.4,4.3-8.3,7.3-14.9,8.8L994.4,254.1z M942,203.4h4.5
			c4.7,0,8.3-1,10.8-2.9c2.5-1.9,3.8-4.7,3.8-8.4c0-3.6-1.3-6.4-3.8-8.4c-2.5-1.9-6.1-2.9-10.8-2.9H942V203.4z"/>
		<path class="st1" d="M1056.6,182.6h-28.3V198h26.7v20.2h-26.7v15.8h28.3v20.2h-52.2v-91.7h52.2V182.6z"/>
		<path class="st1" d="M1118.3,202.8h47.3c0,4.9-0.2,9.3-0.6,13.3c-0.4,4-1.2,7.7-2.4,11.1c-1.7,4.8-4,9-6.9,12.7
			c-2.9,3.7-6.3,6.8-10.3,9.2c-3.9,2.5-8.2,4.4-13,5.7s-9.6,1.9-14.8,1.9c-7.1,0-13.6-1.2-19.5-3.5c-5.9-2.3-10.9-5.7-15.1-9.9
			c-4.2-4.3-7.5-9.4-9.8-15.3c-2.4-6-3.5-12.5-3.5-19.8c0-7.1,1.2-13.7,3.5-19.6c2.3-6,5.6-11,9.8-15.3c4.3-4.2,9.4-7.5,15.4-9.8
			c6-2.3,12.7-3.5,20.1-3.5c9.6,0,18,2.1,25.2,6.2c7.2,4.1,12.9,10.5,17.1,19.2l-22.6,9.4c-2.1-5-4.8-8.6-8.2-10.8
			c-3.4-2.2-7.2-3.3-11.5-3.3c-3.6,0-6.8,0.7-9.7,2c-2.9,1.3-5.4,3.2-7.5,5.7c-2.1,2.5-3.7,5.5-4.9,8.9c-1.2,3.5-1.8,7.4-1.8,11.7
			c0,3.9,0.5,7.5,1.5,10.8c1,3.3,2.5,6.2,4.6,8.6c2,2.4,4.5,4.3,7.5,5.7c3,1.3,6.5,2,10.5,2c2.4,0,4.6-0.3,6.8-0.8
			c2.2-0.5,4.2-1.4,5.9-2.6c1.7-1.2,3.2-2.7,4.3-4.6c1.1-1.9,1.9-4.1,2.3-6.8h-19.6V202.8z"/>
		<path class="st1" d="M1232.9,182.6h-28.3V198h26.7v20.2h-26.7v15.8h28.3v20.2h-52.2v-91.7h52.2V182.6z"/>
		<path class="st1" d="M1250,254.1v-91.7h23.8l44,56v-56h23.7v91.7h-23.7l-44-56v56H1250z"/>
	</g>
	<g>
		<path class="st2" d="M358.8,201.2c0-6.8,1.3-13.1,3.8-19c2.5-5.9,6-11,10.5-15.4c4.5-4.4,9.8-7.8,16-10.3c6.2-2.5,13-3.7,20.5-3.7
			c7.4,0,14.2,1.2,20.4,3.7c6.2,2.5,11.6,5.9,16.1,10.3c4.5,4.4,8,9.5,10.5,15.4c2.5,5.9,3.8,12.2,3.8,19c0,6.8-1.3,13.2-3.8,19
			c-2.5,5.9-6,11-10.5,15.4c-4.5,4.4-9.9,7.8-16.1,10.3c-6.2,2.5-13.1,3.7-20.4,3.7c-7.5,0-14.3-1.2-20.5-3.7
			c-6.2-2.5-11.5-5.9-16-10.3c-4.5-4.4-7.9-9.5-10.5-15.4C360.1,214.3,358.8,208,358.8,201.2z M383.8,201.2c0,3.6,0.7,7,2.1,10.1
			c1.4,3.1,3.2,5.8,5.6,8c2.4,2.3,5.1,4,8.2,5.3c3.1,1.3,6.4,1.9,9.9,1.9c3.5,0,6.8-0.6,9.9-1.9c3.1-1.3,5.9-3,8.3-5.3
			c2.4-2.3,4.3-4.9,5.7-8c1.4-3.1,2.1-6.4,2.1-10.1c0-3.6-0.7-7-2.1-10.1c-1.4-3.1-3.3-5.8-5.7-8c-2.4-2.3-5.1-4-8.3-5.3
			c-3.1-1.3-6.4-1.9-9.9-1.9c-3.5,0-6.8,0.6-9.9,1.9c-3.1,1.3-5.9,3-8.2,5.3c-2.4,2.3-4.2,4.9-5.6,8
			C384.4,194.2,383.8,197.5,383.8,201.2z"/>
		<path class="st2" d="M487.5,155.4l22.1,55.8l22.2-55.8h25.9L519.1,247h-19l-38.5-91.7H487.5z"/>
		<path class="st2" d="M619.5,175.5h-28.3v15.3h26.7V211h-26.7v15.8h28.3V247h-52.2v-91.7h52.2V175.5z"/>
		<path class="st2" d="M712.9,247h-29.7l-22.7-35.3V247h-23.8v-91.7h37.1c5.1,0,9.6,0.8,13.4,2.2c3.8,1.5,6.9,3.5,9.4,6.1
			c2.5,2.6,4.3,5.6,5.6,9c1.3,3.4,1.9,7.1,1.9,10.9c0,7-1.7,12.6-5,17c-3.4,4.3-8.3,7.3-14.9,8.8L712.9,247z M660.5,196.3h4.5
			c4.7,0,8.3-1,10.8-2.9c2.5-1.9,3.8-4.7,3.8-8.4c0-3.6-1.3-6.4-3.8-8.4c-2.5-1.9-6.1-2.9-10.8-2.9h-4.5V196.3z"/>
		<path class="st2" d="M814.5,178.8c-2.6-2.1-5.2-3.7-7.8-4.7c-2.6-1-5.1-1.5-7.5-1.5c-3.1,0-5.6,0.7-7.5,2.2
			c-1.9,1.5-2.9,3.4-2.9,5.7c0,1.6,0.5,3,1.5,4c1,1.1,2.2,2,3.8,2.7c1.6,0.8,3.4,1.4,5.3,2c2,0.6,4,1.2,5.9,1.8
			c7.8,2.6,13.5,6.1,17.1,10.4c3.6,4.3,5.4,10,5.4,17c0,4.7-0.8,9-2.4,12.8c-1.6,3.8-3.9,7.1-6.9,9.8c-3,2.7-6.8,4.8-11.2,6.3
			c-4.4,1.5-9.4,2.2-15,2.2c-11.6,0-22.3-3.4-32.2-10.3l10.2-19.2c3.6,3.2,7.1,5.5,10.6,7.1c3.5,1.5,6.9,2.3,10.3,2.3
			c3.9,0,6.8-0.9,8.7-2.7c1.9-1.8,2.9-3.8,2.9-6.1c0-1.4-0.2-2.6-0.7-3.6c-0.5-1-1.3-1.9-2.4-2.8c-1.1-0.9-2.6-1.6-4.4-2.4
			c-1.8-0.7-4-1.5-6.6-2.4c-3.1-1-6.1-2-9.1-3.2c-3-1.2-5.6-2.7-7.9-4.7c-2.3-1.9-4.2-4.4-5.6-7.4c-1.4-3-2.1-6.7-2.1-11.2
			c0-4.5,0.7-8.7,2.2-12.3c1.5-3.7,3.6-6.8,6.3-9.5c2.7-2.6,6-4.7,10-6.1c3.9-1.5,8.3-2.2,13.2-2.2c4.5,0,9.3,0.6,14.2,1.9
			c4.9,1.3,9.7,3.1,14.2,5.5L814.5,178.8z"/>
		<path class="st2" d="M878.1,175.5V247h-23.8v-71.5h-19.6v-20.2h63v20.2H878.1z"/>
		<path class="st2" d="M984.5,247h-29.7l-22.7-35.3V247h-23.8v-91.7h37.1c5.1,0,9.6,0.8,13.4,2.2c3.8,1.5,6.9,3.5,9.4,6.1
			c2.5,2.6,4.3,5.6,5.6,9c1.3,3.4,1.9,7.1,1.9,10.9c0,7-1.7,12.6-5,17c-3.4,4.3-8.3,7.3-14.9,8.8L984.5,247z M932.1,196.3h4.5
			c4.7,0,8.3-1,10.8-2.9c2.5-1.9,3.8-4.7,3.8-8.4c0-3.6-1.3-6.4-3.8-8.4c-2.5-1.9-6.1-2.9-10.8-2.9h-4.5V196.3z"/>
		<path class="st2" d="M1046.6,175.5h-28.3v15.3h26.7V211h-26.7v15.8h28.3V247h-52.2v-91.7h52.2V175.5z"/>
		<path class="st2" d="M1108.4,195.7h47.3c0,4.9-0.2,9.3-0.6,13.3c-0.4,4-1.2,7.7-2.4,11.1c-1.7,4.8-4,9-6.9,12.7
			c-2.9,3.7-6.3,6.8-10.3,9.2c-3.9,2.5-8.2,4.4-13,5.7s-9.6,1.9-14.8,1.9c-7.1,0-13.6-1.2-19.5-3.5c-5.9-2.3-10.9-5.7-15.1-9.9
			c-4.2-4.3-7.5-9.4-9.8-15.3c-2.4-6-3.5-12.5-3.5-19.8c0-7.1,1.2-13.7,3.5-19.6s5.6-11,9.8-15.3c4.3-4.2,9.4-7.5,15.4-9.8
			c6-2.3,12.7-3.5,20.1-3.5c9.6,0,18,2.1,25.2,6.2c7.2,4.1,12.9,10.5,17.1,19.2l-22.6,9.4c-2.1-5-4.8-8.6-8.2-10.8
			c-3.4-2.2-7.2-3.3-11.5-3.3c-3.6,0-6.8,0.7-9.7,2c-2.9,1.3-5.4,3.2-7.5,5.7c-2.1,2.5-3.7,5.5-4.9,8.9c-1.2,3.5-1.8,7.4-1.8,11.7
			c0,3.9,0.5,7.5,1.5,10.8c1,3.3,2.5,6.2,4.6,8.6c2,2.4,4.5,4.3,7.5,5.7c3,1.3,6.5,2,10.5,2c2.4,0,4.6-0.3,6.8-0.8
			c2.2-0.5,4.2-1.4,5.9-2.6c1.7-1.2,3.2-2.7,4.3-4.6c1.1-1.9,1.9-4.1,2.3-6.8h-19.6V195.7z"/>
		<path class="st2" d="M1222.9,175.5h-28.3v15.3h26.7V211h-26.7v15.8h28.3V247h-52.2v-91.7h52.2V175.5z"/>
		<path class="st2" d="M1240,247v-91.7h23.8l44,56v-56h23.7V247h-23.7l-44-56v56H1240z"/>
	</g>
	<g>
		<path class="st3" d="M1597,135c0-24.3,0-48.7,0-73c2.5-3.8,5.9-5.1,10.5-5.1c79,0.1,158,0.1,237,0.1c8,0,10.5,2.4,10.5,10.3
			c0,20.7-0.1,41.3,0.1,62c0.1,4.9-1.4,8.3-5.7,10.6c-63.9,0-127.8,0.2-191.7-0.3c-9.6-0.1-16.6,2.8-22.9,9.2
			c-5.4,3.8-10.7,7.6-16.7,11.9c0-4.2,0-7.4,0-10.5c0-10.3,0-10.5-10.1-10.2C1603.3,140.1,1599.7,138.9,1597,135z M1701.6,120.2
			c-1.8-2.4-3.5-4.7-5.3-7.1c-1.8-2.4-3.6-4.8-5.3-7.2c-0.7-1-2.3-1.8,0.2-3.3c6.5-3.8,8.3-8.2,6.7-14.9c-1.3-5.6-6.2-9.3-13-9.6
			c-4.3-0.2-8.7,0.1-13-0.1c-2.3-0.1-3.2,0.6-3.2,3.1c0.1,12.3,0.1,24.6,0,36.9c-0.1,4.6,3.2,2.8,5.2,2.8c2,0.1,5.4,1.6,5.1-3
			c-0.2-3.9,0-7.8,0-11.7c3.6,3.7,6.5,7.4,8.8,11.5C1691.2,123.8,1696.7,119.6,1701.6,120.2z M1804.4,121c-5.5-14-10.8-27.4-16-40.8
			c-1.4-3.5-4.2-1.7-6.4-2c-2.1-0.3-3.7,0-4.6,2.5c-4.9,12.5-10,24.9-15,37.4c-0.3,0.9-1,1.9-0.2,2.8c1.4,1.5,10-0.2,10.4-2.3
			c1-4.9,4-6.3,8.5-5.7c1.8,0.2,3.7,0.2,5.5,0c3.1-0.4,5.1,0.4,5.7,3.8c0.6,3.5,2.7,5,6.3,4.4C1800.1,120.8,1801.8,121,1804.4,121z
			 M1631.7,99.5c0,5.5,0.3,11-0.1,16.5c-0.3,4.2,1,5.3,5.1,5.2c4-0.1,6-0.8,5.2-5.1c-0.2-1.3,0.2-2.7-0.1-4c-0.8-4.9,0.8-6.5,6-6.2
			c8.9,0.4,14-4.5,14.4-12.9c0.4-8.3-4.2-13.8-12.9-14.6c-4.6-0.5-9.3,0-13.9-0.3c-3.2-0.2-3.9,1.1-3.8,4
			C1631.8,87.9,1631.7,93.7,1631.7,99.5z M1724.4,78.6c5.9,13.7,11.6,27.4,17.6,41c1,2.3,6.9,2.1,8-0.2
			c5.6-12.9,11.1-25.9,16.7-38.9c0.4-0.8,0.9-1.7-0.5-2.4c-3.8-1.7-9.6,0.6-11.2,4.6c-2.9,7.2-5.8,14.3-9.1,22.4
			c-2.9-7-5.3-13-7.7-18.9c-3.4-8.5-3.4-8.5-12.7-8C1725.3,78.2,1725.2,78.3,1724.4,78.6z M1811.7,103.5c0,4.7,0.3,9.3-0.1,14
			c-0.4,4.7,2.7,3.6,5.1,3.5c2.3-0.1,5.5,1.4,5.3-3.4c-0.3-8.1,0.2-16.3-0.2-24.5c-0.2-4.9,0.7-7.5,6.2-6.5c3.6,0.6,3.1-2.1,2.9-4.1
			c-0.1-1.9,1.2-4.5-2.7-4.4c-7.7,0.2-15.3,0-23,0.1c-1.3,0-2.5-0.2-3,1.7c-1.1,4.7,0.2,7,5,6.8c3.5-0.2,4.7,0.8,4.5,4.4
			C1811.4,95.1,1811.7,99.3,1811.7,103.5z M1707.7,99c0,6.1,0.3,12.3-0.1,18.4c-0.3,4,2,4,4.5,3.6c2.2-0.4,5.9,2,5.8-3.3
			c-0.2-11.9-0.3-23.9,0-35.8c0.1-5-3.1-3.5-5.6-3.7c-2.9-0.3-5.1-0.2-4.8,4C1708,87.7,1707.7,93.3,1707.7,99z"/>
		<path class="st4" d="M1634.9,148.8c6.3-6.4,13.3-9.3,22.9-9.2c63.9,0.5,127.8,0.3,191.7,0.3c4.4,2.2,5.7,5.8,5.6,10.7
			c-0.2,20.3-0.1,40.6-0.1,60.9c0,9.2-2.2,11.3-11.6,11.3c-47.8,0-95.6,0-143.3,0c-2,0-4.1-0.7-5.8,0.7
			c-8.7,6.9-18.1,12.8-26.3,20.4c-0.3,0-0.7,0-1,0c0-5.5-0.2-11,0.1-16.4c0.2-3.6-0.6-5-4.6-4.8c-5.6,0.4-11.3,0.1-16.9,0.1
			c-8.2,0-10.6-2.5-10.6-10.8C1634.9,191,1634.9,169.9,1634.9,148.8z M1709.9,175.2c1.7,1.8,2.6,2.6,3.3,3.5
			c6,7.1,12,14.2,17.9,21.5c2.7,3.3,6.2,2,9.2,1.6c2.6-0.3,1.3-3.3,1.3-5.1c0.1-10.8-0.1-21.6,0.2-32.4c0.1-4.2-1.2-5.3-5.3-5.3
			c-4.1,0-5.5,1-5.3,5.2c0.4,6.8,0.1,13.7,0.1,20.5c-0.5,0.2-0.9,0.3-1.4,0.5c-0.5-0.8-1-1.7-1.6-2.4c-5.9-7-11.9-13.9-17.5-21.1
			c-2.8-3.6-6.3-2.9-9.5-2.4c-3.1,0.5-1.6,3.8-1.6,5.9c-0.2,10.8,0.1,21.6-0.2,32.4c-0.1,4.1,1.5,4.7,4.9,4.5c2.9-0.2,6,0.8,5.6-4.3
			C1709.5,190.7,1709.9,183.6,1709.9,175.2z M1830.6,201.6c-4.9-5.9-9.2-11.7-14.1-16.8c-3.7-3.8-4.2-6.5-0.1-10.5
			c4.6-4.4,8.3-9.6,12.7-14.8c-7.8-1.5-13.6-0.5-17.7,6.4c-2.1,3.5-4.8,6.8-8.6,9.8c0-4.7-0.3-8.7,0.1-12.7c0.3-4.1-1.9-4.3-4.8-4
			c-2.7,0.2-5.7-0.9-5.6,3.9c0.3,11.8,0.3,23.6,0,35.4c-0.1,4.5,2.7,3.6,5.2,3.6c2.5,0,5.6,1.1,5.2-3.6c-0.3-4.5-0.1-9-0.1-14.9
			c3.5,4.3,6.6,7.1,8.5,10.5C1815.6,201.6,1821.9,203.4,1830.6,201.6z M1788.4,202c-5.5-14.1-10.8-27.6-16.2-41.2
			c-1.3-3.3-4.4-1.3-6.6-1.7c-2-0.4-3.4,0.4-4.2,2.5c-5,12.5-10.1,24.9-15.1,37.4c-0.3,0.8-1.1,1.8-0.2,2.7c1.5,1.5,10-0.2,10.5-2.3
			c1-5,4.1-6.2,8.6-5.6c1.8,0.2,3.7,0.2,5.5,0c3.1-0.4,5.1,0.7,5.6,3.9c0.6,3.8,3,4.7,6.5,4.2C1784.4,201.9,1786,202,1788.4,202z
			 M1678.3,202.9c-0.2,0,0.8,0.1,1.8,0c7-0.7,11.7-5.3,12.7-12c1.1-7.1-1.5-11.2-8.8-14.2c-2.3-0.9-4.6-1.8-7-2.7
			c-1.8-0.7-2.6-2-2.3-3.9c0.3-1.9,1.6-2.8,3.4-3.2c2.2-0.4,4.4,0,6.2,1.2c4.1,2.8,4-1.7,5.5-3.2c2.2-2.3,0.2-3.5-1.7-4.3
			c-4.6-2.1-9.4-3.1-14.5-1.6c-5.6,1.7-9.2,6.1-9.6,12c-0.4,5.7,2.1,9.2,8.2,11.6c2.5,1,5,1.8,7.4,2.9c2,0.9,3.1,2.5,2.7,4.8
			c-0.4,2.3-2,3.4-4.1,3.8c-3.4,0.6-6.2-0.7-8.7-2.8c-1-0.8-1.7-1.9-3.3-0.5c-4.6,4.2-4.5,6.5,0.9,9.7
			C1670.2,202.3,1673.5,203.2,1678.3,202.9z"/>
		<path class="st5" d="M1701.6,120.2c-4.9-0.6-10.4,3.6-13.9-2.5c-2.3-4.1-5.3-7.8-8.8-11.5c0,3.9-0.2,7.8,0,11.7
			c0.3,4.6-3.1,3-5.1,3c-2,0-5.3,1.8-5.2-2.8c0.1-12.3,0.1-24.6,0-36.9c0-2.4,0.9-3.2,3.2-3.1c4.3,0.1,8.7-0.1,13,0.1
			c6.8,0.3,11.7,4,13,9.6c1.6,6.7-0.1,11.2-6.7,14.9c-2.5,1.4-1,2.2-0.2,3.3c1.7,2.4,3.5,4.8,5.3,7.2
			C1698.1,115.5,1699.8,117.9,1701.6,120.2z M1678.6,91.9c1.4,1.8-2,6,3.1,5.7c3.7-0.2,6.5-1.7,6.4-5.9c0-4.4-3.1-5.6-6.7-5.6
			C1676.5,86,1680.1,90.1,1678.6,91.9z"/>
		<path class="st6" d="M1804.4,121c-2.5,0-4.2-0.2-5.8,0c-3.6,0.6-5.7-0.9-6.3-4.4c-0.6-3.3-2.6-4.2-5.7-3.8c-1.8,0.2-3.7,0.2-5.5,0
			c-4.6-0.6-7.5,0.7-8.5,5.7c-0.4,2.1-9,3.8-10.4,2.3c-0.8-0.9-0.1-1.9,0.2-2.8c5-12.5,10.1-24.9,15-37.4c1-2.5,2.6-2.8,4.6-2.5
			c2.2,0.4,5-1.5,6.4,2C1793.5,93.6,1798.8,107,1804.4,121z M1788,105c-1.7-4.5-3.2-8.4-5.1-13.6c-1.9,5.4-3.4,9.3-4.9,13.6
			C1781.3,105,1784.3,105,1788,105z"/>
		<path class="st5" d="M1631.7,99.5c0-5.8,0.1-11.6-0.1-17.5c-0.1-2.9,0.6-4.2,3.8-4c4.6,0.3,9.3-0.1,13.9,0.3
			c8.7,0.9,13.3,6.4,12.9,14.6c-0.5,8.4-5.5,13.3-14.4,12.9c-5.2-0.2-6.8,1.3-6,6.2c0.2,1.3-0.2,2.7,0.1,4c0.8,4.4-1.2,5.1-5.2,5.1
			c-4.2,0.1-5.4-1-5.1-5.2C1632,110.5,1631.7,105,1631.7,99.5z M1641.9,91.8c0,6.3,0,6.3,3.1,6.2c4.4-0.1,7-2.4,7-6
			c-0.1-3.6-2.9-5.7-7.3-5.7C1639.6,86.4,1643,90.3,1641.9,91.8z"/>
		<path class="st6" d="M1724.4,78.6c0.8-0.3,0.9-0.4,1.1-0.4c9.4-0.6,9.3-0.6,12.7,8c2.4,6,4.8,11.9,7.7,18.9
			c3.3-8.1,6.2-15.3,9.1-22.4c1.6-3.9,7.4-6.3,11.2-4.6c1.4,0.6,0.8,1.6,0.5,2.4c-5.5,13-11,26-16.7,38.9c-1,2.3-7,2.5-8,0.2
			C1736,106,1730.2,92.3,1724.4,78.6z"/>
		<path class="st6" d="M1811.7,103.5c0-4.2-0.2-8.3,0.1-12.5c0.3-3.6-1-4.6-4.5-4.4c-4.7,0.2-6.1-2-5-6.8c0.5-1.9,1.7-1.7,3-1.7
			c7.7,0,15.3,0.1,23-0.1c3.9-0.1,2.6,2.6,2.7,4.4c0.1,2.1,0.7,4.8-2.9,4.1c-5.5-1-6.5,1.6-6.2,6.5c0.4,8.1-0.1,16.3,0.2,24.5
			c0.2,4.8-3,3.3-5.3,3.4c-2.4,0.1-5.5,1.2-5.1-3.5C1812,112.8,1811.7,108.1,1811.7,103.5z"/>
		<path class="st5" d="M1707.7,99c0-5.6,0.3-11.3-0.1-16.9c-0.3-4.1,1.9-4.2,4.8-4c2.5,0.2,5.7-1.3,5.6,3.7
			c-0.3,11.9-0.3,23.9,0,35.8c0.1,5.3-3.6,2.9-5.8,3.3c-2.5,0.4-4.8,0.5-4.5-3.6C1708,111.3,1707.7,105.1,1707.7,99z"/>
		<path class="st7" d="M1709.9,175.2c0,8.4-0.4,15.6,0.1,22.6c0.3,5.1-2.7,4-5.6,4.3c-3.4,0.3-5-0.4-4.9-4.5
			c0.3-10.8,0-21.6,0.2-32.4c0-2-1.5-5.3,1.6-5.9c3.2-0.5,6.7-1.2,9.5,2.4c5.6,7.2,11.7,14.1,17.5,21.1c0.6,0.7,1.1,1.6,1.6,2.4
			c0.5-0.2,0.9-0.3,1.4-0.5c0-6.8,0.3-13.7-0.1-20.5c-0.2-4.3,1.2-5.2,5.3-5.2c4.1,0,5.4,1,5.3,5.3c-0.3,10.8,0,21.6-0.2,32.4
			c0,1.8,1.2,4.8-1.3,5.1c-3,0.4-6.5,1.7-9.2-1.6c-5.9-7.2-11.9-14.3-17.9-21.5C1712.5,177.8,1711.6,177,1709.9,175.2z"/>
		<path class="st7" d="M1830.6,201.6c-8.8,1.7-15.1-0.1-19.3-7.6c-1.9-3.4-4.9-6.2-8.5-10.5c0,5.8-0.3,10.4,0.1,14.9
			c0.3,4.6-2.8,3.5-5.2,3.6c-2.5,0-5.3,0.9-5.2-3.6c0.3-11.8,0.3-23.6,0-35.4c-0.1-4.8,2.9-3.7,5.6-3.9c3-0.2,5.2,0,4.8,4
			c-0.3,4-0.1,8-0.1,12.7c3.8-3,6.6-6.3,8.6-9.8c4.1-6.9,9.9-7.9,17.7-6.4c-4.4,5.2-8.1,10.4-12.7,14.8c-4.1,4-3.6,6.7,0.1,10.5
			C1821.4,190,1825.7,195.7,1830.6,201.6z"/>
		<path class="st7" d="M1788.4,202c-2.3,0-4-0.2-5.6,0c-3.4,0.4-5.9-0.5-6.5-4.2c-0.5-3.3-2.5-4.3-5.6-3.9c-1.8,0.2-3.7,0.2-5.5,0
			c-4.5-0.6-7.6,0.6-8.6,5.6c-0.4,2.1-8.9,3.8-10.5,2.3c-0.9-0.9-0.1-1.9,0.2-2.7c5-12.5,10.1-24.9,15.1-37.4
			c0.8-2.1,2.2-2.9,4.2-2.5c2.2,0.5,5.3-1.5,6.6,1.7C1777.5,174.4,1782.8,188,1788.4,202z M1771.6,185.9c-1.1-4.3-2.5-8.2-4.8-13.1
			c-1.8,5-3.3,8.9-4.8,13.1C1765.5,185.9,1768.4,185.9,1771.6,185.9z"/>
		<path class="st7" d="M1678.3,202.9c-4.8,0.3-8.1-0.6-11.2-2.4c-5.4-3.2-5.5-5.5-0.9-9.7c1.6-1.4,2.3-0.3,3.3,0.5
			c2.6,2,5.4,3.4,8.7,2.8c2.1-0.4,3.7-1.5,4.1-3.8c0.4-2.3-0.7-3.9-2.7-4.8c-2.4-1.1-5-1.9-7.4-2.9c-6-2.4-8.5-5.9-8.2-11.6
			c0.4-6,3.9-10.4,9.6-12c5.1-1.5,9.9-0.5,14.5,1.6c1.9,0.9,3.9,2,1.7,4.3c-1.5,1.5-1.3,6-5.5,3.2c-1.9-1.2-4-1.6-6.2-1.2
			c-1.8,0.3-3,1.3-3.4,3.2c-0.3,1.9,0.5,3.2,2.3,3.9c2.3,0.9,4.6,1.8,7,2.7c7.3,3,9.8,7,8.8,14.2c-1,6.7-5.8,11.3-12.7,12
			C1679.1,203,1678.1,202.9,1678.3,202.9z"/>
		<path class="st3" d="M1678.6,91.9c1.5-1.8-2.1-5.9,2.8-5.8c3.5,0,6.6,1.2,6.7,5.6c0,4.2-2.7,5.7-6.4,5.9
			C1676.6,97.9,1680,93.7,1678.6,91.9z"/>
		<path class="st3" d="M1788,105c-3.7,0-6.7,0-10,0c1.5-4.2,3-8.2,4.9-13.6C1784.8,96.5,1786.3,100.5,1788,105z"/>
		<path class="st3" d="M1641.9,91.8c1.1-1.5-2.3-5.4,2.8-5.5c4.4,0,7.2,2.1,7.3,5.7c0.1,3.7-2.6,6-7,6
			C1641.9,98,1641.9,98,1641.9,91.8z"/>
		<path class="st4" d="M1771.6,185.9c-3.2,0-6.1,0-9.6,0c1.5-4.1,2.9-8.1,4.8-13.1C1769.1,177.7,1770.5,181.6,1771.6,185.9z"/>
	</g>
</g>
<g id="Layer_3">
	<path class="st8" d="M494.2,652.2c0,0,106.3-29.3,93.9-65.6c-12.4-36.3-93.9,35.8-93.9,35.8V652.2"/>
</g>
<g id="Layer_2">
	<path class="st9" d="M1291.9,616.7L1291.9,616.7c3.5,3.3,3.5,3.3,6.4,6l-7.2,7.1c-3.4,3.4-9.1,3.5-12.7,0.2v0
		c-3.5-3.3-3.6-8.7-0.2-12.1l7.2-7.1C1288.4,613.4,1288.4,613.4,1291.9,616.7z"/>
	<path class="st10" d="M1274.9,635.7l-2.6-2.4c-4.9-4.6-4.9-12.2,0-16.9l35.5-34c4.9-4.6,12.8-4.6,17.7,0l2.6,2.4
		c4.9,4.6,4.9,12.2,0,16.9l-35.5,34C1287.7,640.3,1279.7,640.3,1274.9,635.7z"/>
	<path class="st10" d="M1237.8,801.1c0,0,94.7-33.7,81.8-63.3c-12.9-29.6-81.8,27.6-81.8,27.6V801.1z"/>
	<path class="st11" d="M852.2,538.1h-13c-6.6,0-12-5.4-12-12v-1.2c0-6.6,5.4-12,12-12h13c6.6,0,12,5.4,12,12v1.2
		C864.2,532.7,858.8,538.1,852.2,538.1z"/>
	<path class="st11" d="M855.9,580.1h-13.8c-6.6,0-12-5.4-12-12v-1.7c0-6.6,5.4-12,12-12h13.8c6.6,0,12,5.4,12,12v1.7
		C867.9,574.7,862.5,580.1,855.9,580.1z"/>
	<path class="st10" d="M752.3,805.2c0,0,79.5-32.9,77.3-52.7c-2.1-19.8-77.2,29.9-77.2,29.9L752.3,805.2z"/>
	<path class="st8" d="M556.4,484l36.6-16.4c6.2-2.8,9-10,6-16l-2.3-4.8c-2.9-6-10.4-8.6-16.7-5.8l-36.6,16.4c-6.2,2.8-9,10-6,16
		l2.3,4.8C542.7,484.2,550.2,486.8,556.4,484z"/>
	<path class="st8" d="M556.7,538.6l36.6-16.4c6.2-2.8,9-10,6-16l-2.3-4.8c-2.9-6-10.4-8.6-16.7-5.8l-36.6,16.4c-6.2,2.8-9,10-6,16
		l2.3,4.8C543,538.8,550.5,541.4,556.7,538.6z"/>
	<path class="st8" d="M553.1,578.3l36.6-16.4c6.2-2.8,9-10,6-16l-2.3-4.8c-2.9-6-10.4-8.6-16.7-5.8l-36.6,16.4c-6.2,2.8-9,10-6,16
		l2.3,4.8C539.3,578.5,546.8,581.1,553.1,578.3z"/>
	<path class="st8" d="M549.2,620.3l31.6-14.2c7.6-3.4,10.9-12.2,7.3-19.5l0,0c-3.6-7.3-12.7-10.4-20.3-7l-31.6,14.2
		c-7.6,3.4-10.9,12.2-7.3,19.5l0,0C532.4,620.6,541.5,623.7,549.2,620.3z"/>
	<rect x="371.6" y="693.6" class="st12" width="134.4" height="383.8"/>
	<rect x="618.9" y="868.3" class="st13" width="143.5" height="209.1"/>
	<rect x="388.5" y="622.4" class="st8" width="105.7" height="71.2"/>
	<path class="st8" d="M399.5,667l-12.6,0.5c-6.9,0.3-12.8-4.9-13-11.5l-8.4-196.8c-0.3-6.6,5.1-12.2,12-12.5l12.6-0.5
		c6.9-0.3,12.8,4.9,13,11.5l8.4,196.8C411.8,661.1,406.4,666.7,399.5,667z"/>
	<g>
		<path class="st14" d="M556.5,626.3H409.1c-6.6,0-12-5.4-12-12V350c0-6.6,5.4-12,12-12h147.4c6.6,0,12,5.4,12,12v264.3
			C568.5,620.9,563.1,626.3,556.5,626.3z"/>
		<rect x="412.6" y="364.8" class="st15" width="140.9" height="225.5"/>
		<ellipse class="st16" cx="482.8" cy="608.4" rx="12.4" ry="11.9"/>
		<path class="st16" d="M517.1,353.8h-51.5c-2.4,0-4.3-1.9-4.3-4.3l0,0c0-2.4,1.9-4.3,4.3-4.3h51.5c2.4,0,4.3,1.9,4.3,4.3l0,0
			C521.4,351.9,519.5,353.8,517.1,353.8z"/>
		<ellipse class="st16" cx="444.2" cy="349.5" rx="5.5" ry="5.2"/>
		<ellipse cx="444.2" cy="349.5" rx="3.2" ry="3.1"/>
		<path class="st14" d="M514.8,351.4h-46c-1.1,0-2-0.9-2-2l0,0c0-1.1,0.9-2,2-2h46c1.1,0,2,0.9,2,2l0,0
			C516.8,350.5,515.9,351.4,514.8,351.4z"/>
	</g>
	<g>
		<ellipse class="st16" cx="714.2" cy="764.7" rx="12.4" ry="11.9"/>
		<ellipse class="st16" cx="675.6" cy="505.7" rx="5.5" ry="5.2"/>
		<ellipse cx="675.6" cy="505.7" rx="3.2" ry="3.1"/>
		<path class="st14" d="M787.9,782.5H640.5c-6.6,0-12-5.4-12-12V506.2c0-6.6,5.4-12,12-12h147.4c6.6,0,12,5.4,12,12v264.3
			C799.9,777.1,794.5,782.5,787.9,782.5z"/>
		<rect x="643.9" y="521.1" class="st15" width="140.9" height="225.5"/>
		<path class="st16" d="M748.4,510.1h-51.5c-2.4,0-4.3-1.9-4.3-4.3l0,0c0-2.4,1.9-4.3,4.3-4.3h51.5c2.4,0,4.3,1.9,4.3,4.3l0,0
			C752.7,508.1,750.8,510.1,748.4,510.1z"/>
		<path class="st14" d="M746.2,507.7h-46c-1.1,0-2-0.9-2-2l0,0c0-1.1,0.9-2,2-2h46c1.1,0,2,0.9,2,2l0,0
			C748.2,506.7,747.3,507.7,746.2,507.7z"/>
	</g>
	<rect x="631.8" y="782.5" class="st10" width="120.5" height="85.8"/>
	<path class="st10" d="M629.1,803.8l-7.3,0.5c-6.6,0.4-12.3-4.6-12.7-11.2l-8.5-135.6c-0.4-6.6,4.6-12.3,11.2-12.7l7.3-0.5
		c6.6-0.4,12.3,4.6,12.7,11.2l8.5,135.6C640.8,797.7,635.7,803.4,629.1,803.8z"/>
	<rect x="877.4" y="689.2" class="st17" width="149.5" height="388.2"/>
	<rect x="894.4" y="596.5" class="st11" width="123.3" height="92.7"/>
	<path class="st11" d="M1018.9,631.3l2.7,0.1c6.9,0.3,12.8-4.8,13.1-11.4l10.2-196.6c0.3-6.6-5-12.3-11.9-12.6l-2.7-0.1
		c-6.9-0.3-12.8,4.8-13.1,11.4L1007,618.7C1006.6,625.3,1012,631,1018.9,631.3z"/>
	<g>
		<ellipse class="st16" cx="938.5" cy="582.1" rx="12.4" ry="11.9"/>
		<ellipse class="st16" cx="899.9" cy="323.2" rx="5.5" ry="5.2"/>
		<ellipse cx="899.9" cy="323.2" rx="3.2" ry="3.1"/>
		<path class="st14" d="M1012.2,600H864.8c-6.6,0-12-5.4-12-12V323.7c0-6.6,5.4-12,12-12h147.4c6.6,0,12,5.4,12,12V588
			C1024.2,594.6,1018.8,600,1012.2,600z"/>
		<rect x="868.3" y="338.5" class="st15" width="140.9" height="225.5"/>
		<path class="st16" d="M972.8,327.5h-51.5c-2.4,0-4.3-1.9-4.3-4.3l0,0c0-2.4,1.9-4.3,4.3-4.3h51.5c2.4,0,4.3,1.9,4.3,4.3l0,0
			C977.1,325.6,975.1,327.5,972.8,327.5z"/>
		<path class="st14" d="M970.5,325.1h-46c-1.1,0-2-0.9-2-2l0,0c0-1.1,0.9-2,2-2h46c1.1,0,2,0.9,2,2l0,0
			C972.5,324.2,971.6,325.1,970.5,325.1z"/>
	</g>
	<g>
		<ellipse class="st16" cx="1211.8" cy="753.3" rx="12.5" ry="11.9"/>
		<ellipse class="st16" cx="1173.1" cy="493.5" rx="5.5" ry="5.3"/>
		<ellipse cx="1173.1" cy="493.5" rx="3.3" ry="3.1"/>
		<path class="st14" d="M1285.8,771.2h-147.9c-6.6,0-12-5.4-12-12V494c0-6.6,5.4-12,12-12h147.9c6.6,0,12,5.4,12,12v265.2
			C1297.8,765.8,1292.4,771.2,1285.8,771.2z"/>
		<rect x="1141.3" y="508.9" class="st15" width="141.3" height="226.2"/>
		<path class="st16" d="M1246.6,497.9h-52.5c-2.2,0-3.9-1.8-3.9-3.9v-0.8c0-2.2,1.8-3.9,3.9-3.9h52.5c2.2,0,3.9,1.8,3.9,3.9v0.8
			C1250.5,496.1,1248.7,497.9,1246.6,497.9z"/>
		<path class="st14" d="M1244.1,495.5h-46.5c-1,0-1.8-0.8-1.8-1.8v-0.4c0-1,0.8-1.8,1.8-1.8h46.5c1,0,1.8,0.8,1.8,1.8v0.4
			C1245.9,494.6,1245.1,495.5,1244.1,495.5z"/>
	</g>
	<path class="st8" d="M1374.1,512.2h-13c-6.6,0-12-5.4-12-12V499c0-6.6,5.4-12,12-12h13c6.6,0,12,5.4,12,12v1.2
		C1386.1,506.8,1380.7,512.2,1374.1,512.2z"/>
	<path class="st8" d="M1377.8,554.1H1364c-6.6,0-12-5.4-12-12v-1.7c0-6.6,5.4-12,12-12h13.8c6.6,0,12,5.4,12,12v1.7
		C1389.8,548.7,1384.4,554.1,1377.8,554.1z"/>
	<rect x="1416.3" y="570.6" class="st8" width="123.3" height="92.7"/>
	<path class="st8" d="M1544.7,612.2l2.7,0.1c6.9,0.3,12.8-4.8,13.1-11.4l10.2-196.6c0.3-6.6-5-12.3-11.9-12.6l-2.7-0.1
		c-6.9-0.3-12.8,4.8-13.1,11.4l-10.2,196.6C1532.5,606.2,1537.8,611.9,1544.7,612.2z"/>
	<g>
		<ellipse class="st16" cx="1460.4" cy="556.2" rx="12.4" ry="11.9"/>
		<ellipse cx="1421.8" cy="297.2" rx="3.2" ry="3.1"/>
		<path class="st14" d="M1534.1,574h-147.4c-6.6,0-12-5.4-12-12V297.7c0-6.6,5.4-12,12-12h147.4c6.6,0,12,5.4,12,12V562
			C1546.1,568.6,1540.7,574,1534.1,574z"/>
		<rect x="1390.1" y="312.6" class="st15" width="140.9" height="225.5"/>
		<path class="st16" d="M1494.6,301.6h-51.5c-2.4,0-4.3-1.9-4.3-4.3l0,0c0-2.4,1.9-4.3,4.3-4.3h51.5c2.4,0,4.3,1.9,4.3,4.3l0,0
			C1498.9,299.6,1497,301.6,1494.6,301.6z"/>
		<path class="st14" d="M1492.4,299.2h-46c-1.1,0-2-0.9-2-2v0c0-1.1,0.9-2,2-2h46c1.1,0,2,0.9,2,2v0
			C1494.4,298.2,1493.5,299.2,1492.4,299.2z"/>
		<ellipse class="st16" cx="1421.8" cy="297.2" rx="5.5" ry="5.2"/>
	</g>
	<polygon class="st18" points="1387.5,834.9 1387.5,834.9 1387.5,834.9 1387.5,834.9 	"/>
	<rect x="1404.8" y="662" class="st19" width="146.1" height="415.5"/>
	<path class="st20" d="M383.2,469.7L383.2,469.7c-6.2,0.3-6.2,0.2-11.3,0.5l-0.6-12.5c-0.3-6,4.5-11.1,10.8-11.4h0
		c6.2-0.3,11.6,4.3,11.9,10.3l0.6,12.5C389.4,469.4,389.4,469.4,383.2,469.7z"/>
	<path class="st21" d="M654,673.6L654,673.6c0-6,0.1-6,0.1-10.8l13.1,0.1c6.2,0,11.3,4.9,11.3,10.9l0,0c0,6-5.2,10.8-11.4,10.8
		l-13.1-0.1C654,679.6,654,679.6,654,673.6z"/>
	<path class="st22" d="M869.3,443.3L869.3,443.3c1.3-5,1.4-5,2.4-9l10.9,2.6c5.2,1.3,8.4,6.3,7,11.3l0,0c-1.3,5-6.6,8-11.8,6.7
		l-10.9-2.6C868,448.2,868,448.2,869.3,443.3z"/>
	<path class="st9" d="M1393,417.8L1393,417.8c1.3-4.6,1.3-4.6,2.3-8.4l10.3,2.6c4.9,1.2,7.9,6,6.7,10.7v0c-1.3,4.6-6.3,7.4-11.3,6.2
		l-10.3-2.6C1391.8,422.4,1391.8,422.4,1393,417.8z"/>
	<g id="Layer_5">
		<rect x="412.6" y="365" class="st23" width="140.9" height="226.6"/>
		<ellipse class="st24" cx="483.8" cy="468.8" rx="47.2" ry="61.2"/>
		<ellipse class="st25" cx="483.7" cy="469" rx="43.9" ry="56.8"/>
		<ellipse class="st24" cx="483.7" cy="469" rx="41.4" ry="53.6"/>
		<path class="st26" d="M458.4,423.7h49.5c4.2,0,7.5,4.4,7.5,9.7v0c0,5.4-3.4,9.7-7.5,9.7h-49.5c-4.2,0-7.5-4.4-7.5-9.7v0
			C450.9,428.1,454.3,423.7,458.4,423.7z"/>
		<path class="st26" d="M506.5,454.2l-15.2,33.3c-3.9,8.5-13.3,8.3-17.1-0.2l-14.7-33.6c-3.7-8.5,1.1-19.1,8.7-19l29.8,0.3
			C505.7,435,510.3,445.7,506.5,454.2z"/>
		<path class="st27" d="M503.6,456l-12,26.8c-3.8,8.5-13.4,8.5-17.1-0.1l-12-27.4c-3.8-8.6,1.1-19.2,8.8-19l23.9,0.6
			C502.8,437,507.4,447.5,503.6,456z"/>
		<ellipse class="st28" cx="469.3" cy="445.2" rx="5.9" ry="5.2"/>
		<ellipse class="st28" cx="483.1" cy="467.6" rx="5.9" ry="5.2"/>
		<ellipse class="st28" cx="473" cy="458.7" rx="5.9" ry="5.2"/>
		<ellipse class="st28" cx="490.9" cy="456.9" rx="5.9" ry="5.2"/>
		<ellipse class="st28" cx="483" cy="480.9" rx="5.9" ry="5.2"/>
		<ellipse class="st28" cx="483" cy="446.2" rx="5.9" ry="5.2"/>
		<ellipse class="st28" cx="499.4" cy="446.4" rx="5.9" ry="5.2"/>
		<ellipse class="st29" cx="471.9" cy="454.8" rx="0.2" ry="0.3"/>
		<ellipse class="st29" cx="469.4" cy="457.6" rx="0.2" ry="0.2"/>
		<ellipse class="st29" cx="472.3" cy="459.7" rx="0.2" ry="0.2"/>
		<ellipse class="st29" cx="474.9" cy="455.7" rx="0.1" ry="0.2"/>
		<ellipse class="st29" cx="475.8" cy="458.6" rx="0.1" ry="0.2"/>
		<ellipse class="st29" cx="473.2" cy="457.1" rx="0.2" ry="0.2"/>
		<ellipse class="st29" cx="474" cy="461.1" rx="0.2" ry="0.2"/>
		<ellipse class="st29" cx="477.3" cy="457.5" rx="0.1" ry="0.1"/>
		<ellipse class="st29" cx="470" cy="460.6" rx="0.2" ry="0.3"/>
		<ellipse class="st29" cx="489" cy="453.8" rx="0.3" ry="0.4"/>
		<ellipse class="st29" cx="487.5" cy="457.1" rx="0.3" ry="0.2"/>
		<ellipse class="st29" cx="490.9" cy="455.4" rx="0.2" ry="0.3"/>
		<ellipse class="st29" cx="492.5" cy="453.6" rx="0.1" ry="0.2"/>
		<ellipse class="st29" cx="493.9" cy="456.6" rx="0.2" ry="0.3"/>
		<ellipse class="st29" cx="490.8" cy="458.6" rx="0.1" ry="0.2"/>
		<ellipse class="st29" cx="482.6" cy="465.5" rx="0.3" ry="0.4"/>
		<ellipse class="st29" cx="484.7" cy="465.3" rx="0.1" ry="0.2"/>
		<ellipse class="st29" cx="479.6" cy="466.2" rx="0.2" ry="0.3"/>
		<ellipse class="st29" cx="481.2" cy="469.4" rx="0.1" ry="0.1"/>
		<ellipse class="st29" cx="484.1" cy="469" rx="0.2" ry="0.2"/>
		<ellipse class="st29" cx="482.5" cy="467.8" rx="0.2" ry="0.2"/>
		<ellipse class="st29" cx="485.9" cy="467.4" rx="0.2" ry="0.2"/>
		<ellipse class="st29" cx="481.9" cy="478.1" rx="0.2" ry="0.3"/>
		<path class="st29" d="M478.8,480.5c0.1,0,0.2,0.1,0.2,0.2c0,0.1-0.1,0.2-0.2,0.2s-0.2-0.1-0.2-0.2
			C478.6,480.6,478.7,480.5,478.8,480.5z"/>
		<ellipse class="st29" cx="481.5" cy="482" rx="0.2" ry="0.3"/>
		<ellipse class="st29" cx="484.1" cy="480.4" rx="0.2" ry="0.2"/>
		<ellipse class="st29" cx="486.1" cy="480.7" rx="0.2" ry="0.3"/>
		<ellipse class="st29" cx="484.1" cy="483" rx="0.2" ry="0.2"/>
		<ellipse class="st29" cx="484.7" cy="477.7" rx="0.1" ry="0.2"/>
		<ellipse class="st29" cx="482.7" cy="443.5" rx="0.3" ry="0.3"/>
		<ellipse class="st29" cx="480.5" cy="444.4" rx="0.1" ry="0.2"/>
		<ellipse class="st29" cx="478.8" cy="446.8" rx="0.3" ry="0.3"/>
		<ellipse class="st29" cx="482.8" cy="448" rx="0.2" ry="0.2"/>
		<ellipse class="st29" cx="482.4" cy="445.7" rx="0.1" ry="0.1"/>
		<ellipse class="st29" cx="485" cy="444.4" rx="0.1" ry="0.2"/>
		<ellipse class="st29" cx="486.6" cy="443.5" rx="0.3" ry="0.3"/>
		<ellipse class="st29" cx="485.5" cy="447.4" rx="0.2" ry="0.3"/>
		<ellipse class="st29" cx="487.3" cy="446.6" rx="0.1" ry="0.2"/>
		<ellipse class="st29" cx="496.1" cy="444.4" rx="0.1" ry="0.2"/>
		<ellipse class="st29" cx="498" cy="442.5" rx="0.1" ry="0.2"/>
		<ellipse class="st29" cx="496.4" cy="447.9" rx="0.2" ry="0.3"/>
		<ellipse class="st29" cx="499" cy="447.4" rx="0.2" ry="0.3"/>
		<ellipse class="st29" cx="497.9" cy="444.9" rx="0.3" ry="0.3"/>
		<ellipse class="st29" cx="470.4" cy="444.4" rx="0.1" ry="0.2"/>
		<ellipse class="st29" cx="467.3" cy="443.7" rx="0.1" ry="0.2"/>
		<ellipse class="st29" cx="464.8" cy="444.1" rx="0.2" ry="0.2"/>
		<ellipse class="st29" cx="466.2" cy="446.8" rx="0.2" ry="0.3"/>
		<ellipse class="st29" cx="468.4" cy="447.8" rx="0.1" ry="0.2"/>
		<ellipse class="st29" cx="470.6" cy="447.3" rx="0.1" ry="0.2"/>
		<ellipse class="st29" cx="472.4" cy="443.7" rx="0.1" ry="0.2"/>
		<ellipse class="st29" cx="468.6" cy="441.6" rx="0.1" ry="0.1"/>
		<ellipse class="st29" cx="469.3" cy="445.7" rx="0.1" ry="0.1"/>
		<ellipse class="st29" cx="470.9" cy="442.3" rx="0.3" ry="0.3"/>
		<path class="st30" d="M473.7,444c-0.2,1.5-0.9,2.7-1.9,3.5c-0.1,0.1-0.2,0.3-0.1,0.5c0.1,0.2,0.2,0.2,0.4,0.1
			c1.1-0.8,1.9-2.3,2.2-3.9C474.4,443.7,473.8,443.5,473.7,444z"/>
		<path class="st30" d="M470.7,448.3c0.2,0,0.3-0.2,0.3-0.4s-0.1-0.4-0.3-0.4c-0.2,0-0.3,0.2-0.3,0.4S470.5,448.3,470.7,448.3z"/>
		<path class="st30" d="M480.3,448.7c1.1,1,2.5,1.4,3.8,1.1c0.4-0.1,0.2-0.8-0.2-0.7c-1.2,0.3-2.4,0-3.4-1
			C480.3,447.8,480,448.5,480.3,448.7L480.3,448.7z"/>
		<path class="st30" d="M486.5,448.3c0.2,0,0.3-0.2,0.3-0.4s-0.1-0.4-0.3-0.4s-0.3,0.2-0.3,0.4S486.4,448.3,486.5,448.3z"/>
		<path class="st30" d="M494.5,444.2c-0.3,1-0.7,2.2-0.4,3.3c0.2,0.9,0.8,1.5,1.5,1.5c0.4,0,0.4-0.7,0-0.7c-1.5-0.1-0.9-2.6-0.5-3.7
			C495.2,444.1,494.7,443.7,494.5,444.2z"/>
		<path class="st30" d="M497.8,449.9v-0.2c0-0.2-0.1-0.4-0.3-0.4c-0.2,0-0.3,0.2-0.3,0.4v0.2c0,0.2,0.1,0.4,0.3,0.4
			C497.7,450.3,497.8,450.1,497.8,449.9z"/>
		<path class="st30" d="M494.9,454.8c0.9,1.6,0.5,3.9-1,4.5c-0.4,0.2-0.2,0.9,0.2,0.7c1.9-0.8,2.6-3.6,1.4-5.6
			C495.2,454,494.7,454.4,494.9,454.8L494.9,454.8z"/>
		<path class="st30" d="M492.7,460.8l0.3-0.3c0.1-0.1,0.1-0.4,0-0.5c-0.1-0.1-0.3-0.1-0.4,0l-0.3,0.3c-0.1,0.1-0.1,0.4,0,0.5
			C492.4,461,492.6,461,492.7,460.8L492.7,460.8z"/>
		<path class="st30" d="M486.6,464.8c1.3,1.1,1.2,3.5-0.2,4.4c-0.3,0.2,0,0.9,0.3,0.6c1.8-1.2,1.9-4.3,0.2-5.7
			C486.6,463.9,486.3,464.5,486.6,464.8L486.6,464.8z"/>
		<path class="st30" d="M485.7,470.6v-0.2c0-0.2-0.1-0.4-0.3-0.4c-0.2,0-0.3,0.2-0.3,0.4v0.2c0,0.2,0.1,0.4,0.3,0.4
			C485.6,471,485.7,470.8,485.7,470.6z"/>
		<path class="st30" d="M467.9,457.3c-0.6,1.3-0.3,3,0.8,3.8c0.3,0.3,0.7,0.4,1.1,0.4c0.4,0,0.4-0.7,0-0.7c-0.9,0-1.6-0.9-1.6-2
			c0-0.4,0.1-0.8,0.2-1.1C468.6,457.3,468.1,456.9,467.9,457.3z"/>
		<path class="st30" d="M471.9,462.2h0.1c0.2,0,0.3-0.2,0.3-0.4c0-0.2-0.1-0.4-0.3-0.4h-0.1c-0.2,0-0.3,0.2-0.3,0.4
			C471.6,462.1,471.8,462.2,471.9,462.2z"/>
		<path class="st30" d="M478.6,478.1c-1.4,2.5-0.2,5.8,2.2,6.1c0.4,0,0.4-0.7,0-0.7c-1.9-0.3-2.8-3-1.7-5
			C479.3,478.1,478.8,477.7,478.6,478.1L478.6,478.1z"/>
		<g id="Layer_2_4_">
			<path class="st31" d="M787.7,520.3l-0.1,225c0,1.7-1.1,3-2.4,3l-141.4-0.1c-1.3,0-2.4-1.4-2.4-3l0.1-225c0-1.7,1.1-3,2.4-3
				l141.4,0.1C786.7,517.2,787.7,518.6,787.7,520.3z"/>
			<ellipse class="st32" cx="716.7" cy="604.8" rx="9.5" ry="16.4"/>
			<path class="st33" d="M718.5,625c-1.6,0.6-3.3,0.5-4.9-0.1c-1.3-0.6-1.5-1.8-1.4-3.3c0-0.1,0-0.2,0.1-0.3
				c0.4-1.1,1.1-2.3,2.2-1.8c1.2,0.5,1.8,0.6,3,0.1c1.1-0.4,1.9,0.6,2.4,1.9c0,0.1,0.1,0.2,0.1,0.3
				C720.1,623.4,719.8,624.5,718.5,625z"/>
			<path class="st34" d="M728.6,638.2c-0.2,3.4-2.4,6.1-5,5.4s-4.3-3-4.1-6.2c0.2-3.2,2.3-5.1,4.8-5.2
				C726.8,632.1,728.7,634.8,728.6,638.2z"/>
			<ellipse class="st34" cx="712.3" cy="637.7" rx="4.9" ry="5.3"/>
			<ellipse class="st35" cx="712.9" cy="637.6" rx="1.4" ry="1.7"/>
			<ellipse class="st35" cx="724.2" cy="637.6" rx="1.4" ry="1.7"/>
			<ellipse class="st36" cx="712.9" cy="637.8" rx="0.6" ry="0.7"/>
			<ellipse class="st36" cx="724.2" cy="637.6" rx="0.6" ry="0.7"/>
			<ellipse class="st37" cx="713.7" cy="603.2" rx="0.8" ry="1"/>
			<path class="st37" d="M719.7,603.7c0.8-0.3,1.6-0.2,2.4,0.1c0.4,0.2,0.5-0.6,0.2-0.7c-0.9-0.4-1.8-0.4-2.7-0.1
				c-0.2,0.1-0.2,0.3-0.2,0.5C719.3,603.6,719.5,603.7,719.7,603.7z"/>
			<path class="st38" d="M716.8,602.5h0.5c0.4,0,0.7,0.4,0.7,0.9v4.7c0,0.5-0.3,0.9-0.7,0.9h-0.5c-0.4,0-0.7-0.4-0.7-0.9v-4.7
				C716.1,602.9,716.4,602.5,716.8,602.5z"/>
			<path class="st39" d="M718.2,600.6c1.2-0.4,2.5-0.4,3.7,0.1c0.4,0.1,0.5-0.6,0.2-0.7c-1.3-0.5-2.7-0.6-4-0.1
				C717.7,600,717.8,600.8,718.2,600.6z"/>
			<path class="st39" d="M714.4,600.7c-1.2-0.8-3-1.1-4,0.3c-0.1,0.1-0.1,0.4,0,0.5c0.1,0.1,0.3,0.1,0.4,0c0.8-1.1,2.3-0.8,3.3-0.1
				C714.5,601.6,714.8,600.9,714.4,600.7L714.4,600.7z"/>
			<path class="st39" d="M715.7,588.2c-4,0.9-7.4,4.2-8.8,8.6c-1.2,4-0.7,8.4-1,12.7c-0.2,3.7-1,7.2-2.3,10.5
				c-0.5,1.4-1.2,2.9-0.6,4.3c0.6,1.4,2.2,1.8,3.5,1.6s2.6-0.9,3.9-1.2c0.8-0.1,1.7-0.2,2-1c-0.3-1.2-0.2-2.5,0.4-3.5
				c0.3-0.5,0.8-1.1,0.7-1.7c-0.1-0.3-0.2-0.5-0.3-0.7c-1.6-2.5-3.9-4.7-4.6-7.8c-0.3-1.4-0.3-2.9-0.2-4.3c0.1-2.8,0.2-5.6,0.9-8.3
				c0.7-2.7,2.1-5.3,4.2-6.7c0.8-0.5,1.6-0.9,2.2-1.7"/>
			<path class="st39" d="M715.1,589.8c2.2,0.3,4.2,1.8,5.6,3.9c1.4,2.2,2.2,4.9,2.2,7.7c0,1.5-0.1,2.9-0.2,4.4
				c0,2.5,0.3,5.1-0.2,7.5c-0.3,1.2-0.8,2.2-1.3,3.3l-1.5,3.1c-0.3,0.7-0.7,1.5-0.7,2.3c-0.1,1.4,0.7,2.6,1.7,3.2s2,0.9,3,1.3
				c0.4,0.2,0.9,0.4,1.3,0.3c0.6-0.1,1-0.8,1.3-1.4l1.7-3c0.6-1,1.1-1.9,1.4-3c0.3-1.2,0.4-2.5,0.4-3.8c0.1-3,0.2-6.1-0.5-9
				c-0.4-1.5-0.9-2.8-1.3-4.3c-0.4-2-0.4-4-0.9-6c-0.5-2.1-1.5-4-2.9-5.4c-0.8-0.7-1.7-1.3-2.6-1.7c-3.3-1.6-7.1-1.7-10.1,0.7
				c1-0.6,2.1-0.7,3.1-0.2"/>
			<path d="M713.8,602.3c-0.3-0.2-0.6-0.2-0.9-0.1c-0.3,0.2-0.6,0.6-1,0.6c-0.4,0-0.4,0.8,0,0.8c0.2,0,0.5-0.1,0.7-0.3
				c0.3-0.2,0.6-0.6,0.9-0.4C713.8,603.2,714.2,602.6,713.8,602.3L713.8,602.3z"/>
			<ellipse class="st40" cx="716.6" cy="611.7" rx="0.8" ry="1"/>
			<ellipse class="st41" cx="718.1" cy="643.5" rx="0.5" ry="0.6"/>
			<ellipse class="st42" cx="737.1" cy="608.6" rx="5.9" ry="40.3"/>

				<ellipse transform="matrix(0.4787 -0.878 0.878 0.4787 -156.3777 976.6373)" class="st42" cx="744.2" cy="620" rx="13.8" ry="3.8"/>

				<ellipse transform="matrix(0.9498 -0.3128 0.3128 0.9498 -146.7675 257.5341)" class="st42" cx="729.2" cy="586.2" rx="3.4" ry="19.2"/>
			<path class="st43" d="M732.8,639.5h10.4c3.6,0,6.5,3.7,6.5,8.3v17.4c0,4.6-2.9,8.3-6.5,8.3h-10.4c-3.6,0-6.5-3.7-6.5-8.3v-17.4
				C726.3,643.2,729.2,639.5,732.8,639.5z"/>
			<path class="st43" d="M727,633.7h22c1.6,0,3,1.7,3,3.8v3.9c0,2.1-1.3,3.8-3,3.8h-22c-1.6,0-3-1.7-3-3.8v-3.9
				C724,635.4,725.3,633.7,727,633.7z"/>
			<path class="st44" d="M682.7,551.1l27,0.2c2.5,0,4.5,2.6,4.4,5.7l-0.6,115.2c0,3.2-2,5.7-4.5,5.7l-27-0.2c-2.5,0-4.5-2.6-4.4-5.7
				l0.6-115.2C678.2,553.6,680.3,551.1,682.7,551.1z"/>
			<path class="st45" d="M731.1,592.2L731.1,592.2c0.2-2.5-0.4-3,2.3-1.8c33,15.5,30.4,31.5-4.3,34.9c-2.8,0.3-0.6-0.8-2.6-1.9
				c0.2,0,0.2,0,0-0.1c1.5-1.5-0.4-2.6,2.1-3c31.3-4.4,29.9-10,4.4-24.6C731,594.6,730.8,594.7,731.1,592.2z"/>
			<path class="st45" d="M726.6,590.1c0.1-1.3,0.3-2.6,0.7-3.9c0.9-2.7,2.1-3.1,4.2-2.9c0.4,0,0.9,0.2,1.3,0.5
				c2.1,1.5,2.8,3.4,3.1,6.5c0.1,1.2,0.1,3.4-0.3,4.5c-0.9,2.8-2.1,3-4.3,3.1c-0.5,0-1.5-0.3-1.9-0.8
				C727.6,595.1,726.6,593.3,726.6,590.1z"/>
			<path class="st45" d="M730.1,602.2c-0.1-1.4-0.2-3.4-0.1-4.8c0.1-1.2,0.6-1.7,1.5-1.4l0,0c0.9,0.3,1.3,1.2,1.4,2.3
				c0.1,1.4,0.1,2.9,0,4.3c-0.2,1.1-0.6,1.9-1.4,1.7l0,0C730.4,604.3,730.2,603.4,730.1,602.2z"/>
			<path class="st45" d="M722.4,587.9c0.1-0.2-0.1,0,0.2-0.3c0.2-0.3,0.6-0.8,1.1-0.5c1.5,0.8,3.2,1.6,4.6,2.6
				c0.5,0.4,0.8,1,0.6,1.7l0,0c-0.1,0.7-0.4,0.9-1,0.5c-1.6-1-3.3-1.8-4.9-2.6C722.4,589.1,722.4,588.6,722.4,587.9z"/>
			<path class="st45" d="M721.8,594.4c-0.3-0.3,0-0.1-0.2-0.3c0.2-0.6,0.2-1.2,0.9-1.4c1.7-0.3,3.6-0.2,5.3,0c0.6,0.1,1,0.5,1.2,1.1
				l0,0c0.2,0.7,0.1,1.3-0.5,1.3c-1.8-0.1-3.8-0.4-5.6,0C722.2,595.2,722.1,594.7,721.8,594.4z"/>
			<path class="st45" d="M724.1,582.9L724.1,582.9c0.2-0.8,0.5-1.2,1.2-1.1c1.9,0.4,3,1.9,3.7,4c0.3,0.8,0.3,1.3,0,2
				c0.1,0.1,0.1,0.1,0,0c-0.3,0.6-0.7,0.3-1-0.3c-0.8-1.7-1.6-3.1-3.3-3.4C724.2,584,724,583.6,724.1,582.9z"/>
			<path class="st45" d="M728.2,578.7C728.3,578.3,728,578.6,728.2,578.7c0.3-0.7,0.9-0.8,1.5-0.3c1,1,1.8,2.3,1.9,4
				c0.1,0.9-0.3,1.3-0.8,1.7l0,0c-0.5,0.4-0.7,0-0.8-0.6c-0.2-1.2-0.8-2.3-1.5-3.1C728.1,579.8,727.8,579.3,728.2,578.7z"/>
			<ellipse class="st32" cx="719.1" cy="599.3" rx="9.5" ry="16.4"/>
			<path class="st33" d="M716.6,676.7c-0.9,0.1-1.8,0.1-2.7,0c-6.2-1-10.2-6.5-9-14.1c1.4-9.2,2.5-23.5,4.9-31.4
				c2-6.7-5.5-9.8,6.6-13c1.7-0.4,2.3-0.4,3.2-0.4c6.3,0.2,9.8,5,9.1,12.8c-0.8,9.2-4.5,24.5-4.1,32.9
				C724.9,670.4,722.5,675.9,716.6,676.7z"/>
			<path class="st33" d="M721.3,619.6c-1.6,0.6-3.3,0.5-4.9-0.1c-1.3-0.6-1.5-1.7-1.4-3.3c0-0.1,0-0.2,0.1-0.3
				c0.4-1.1,1.1-2.3,2.2-1.8c1.2,0.5,1.8,0.6,3,0.1c1.1-0.4,1.9,0.6,2.4,1.9c0,0.1,0.1,0.2,0.1,0.3
				C722.8,617.9,722.6,619.1,721.3,619.6z"/>
			<path class="st46" d="M702.5,660L702.5,660c-0.6,0.9-0.8,1.4-2.3,0.2c-18.7-14.9-6.8-24.9,8.9-39.3c1.3-1.2,1.8-0.8,2.5,0l0,0
				c0.7,0.8,1.1,1.4-0.2,2.6c-16,14.4-24.2,19.9-9.3,33.7C703.4,658.3,703.1,659.1,702.5,660z"/>
			<path class="st46" d="M706.2,661.6c-0.5,0.6-1.2,1.3-1.8,1.9c-1.5,1.5-3.2,1.5-4.9,0.2c-0.4-0.3-1-0.9-1.3-1.2
				c-1.3-1.2-1.2-2.3-0.2-3.7c0.4-0.6,1.4-1.8,1.9-2.3c1.2-1.4,3.2-3,4.5-1.1c0.3,0.4,0.8,1.2,1.1,1.6
				C706.9,658.3,707.6,660,706.2,661.6z"/>
			<path class="st46" d="M707.4,655.4c-1,0.1-1.9,0.3-2.4,1.2c-0.4,0.7-1.1,0.6-1.5,0l0,0c-0.4-0.6-0.4-1.4,0.2-2.1
				c0.7-0.8,2.3-1.4,3.3-1.5c0.9-0.1,1.4,0.4,1.6,1.1l0,0C708.7,654.8,708.3,655.4,707.4,655.4z"/>
			<path class="st46" d="M708.4,664.9L708.4,664.9c-0.4,0.3-0.9,0.2-1.2-0.2c-0.9-1.1-1.5-2.4-2.7-3.2c-0.4-0.3-0.3-0.7,0-1l0,0
				c0.4-0.3,0.8-0.4,1.2-0.1c1.2,0.8,2.1,2.2,3,3.4C708.9,664.2,708.8,664.6,708.4,664.9z"/>
			<path class="st46" d="M711.4,660.3L711.4,660.3c-0.1,0.4-0.6,0.7-1.1,0.6c-1.4-0.5-2.8-1-4.3-0.9c-0.4,0.1-0.8-0.3-0.9-0.8l0,0
				c-0.1-0.4,0-0.8,0.4-1c0.1,0,0.2-0.1,0.3,0c1.7,0.1,3.4,0.5,5.1,1C711.3,659.4,711.5,659.9,711.4,660.3z"/>
			<path class="st46" d="M705.5,667.6L705.5,667.6c-0.4,0.2-1,0.1-1.2-0.4c-0.5-1.3-1.6-2.7-2.1-4.1c-0.2-0.5,0.2-0.7,0.5-0.9l0,0
				c0.3-0.1,0.9-0.2,1.1,0.3c0.5,1.3,1.5,2.6,2.1,3.9C706.2,667,705.9,667.4,705.5,667.6z"/>
			<path class="st46" d="M700.7,669L700.7,669c-0.5,0-0.9-0.3-0.9-0.9c-0.1-1.1-0.2-2.7-0.3-3.8c0-0.6,0.3-0.9,0.8-0.9l0,0
				c0.5,0,0.9,0.3,0.9,0.9c0.1,1.1,0.2,2.6,0.3,3.7C701.5,668.6,701.2,669,700.7,669z"/>
			<path class="st34" d="M730.9,632.8c-0.2,3.4-2.4,6.1-5,5.4s-4.3-3-4.1-6.2c0.2-3.2,2.3-5.1,4.8-5.2
				C729.2,626.7,731.1,629.4,730.9,632.8z"/>
			<ellipse class="st34" cx="714.7" cy="632.2" rx="4.9" ry="5.3"/>
			<ellipse class="st35" cx="715.3" cy="632.1" rx="1.4" ry="1.7"/>
			<ellipse class="st35" cx="726.5" cy="632.1" rx="1.4" ry="1.7"/>
			<ellipse class="st36" cx="715.3" cy="632.3" rx="0.6" ry="0.7"/>
			<ellipse class="st36" cx="726.5" cy="632.1" rx="0.6" ry="0.7"/>
			<ellipse class="st37" cx="716.5" cy="597.8" rx="0.8" ry="1"/>
			<path class="st37" d="M722.1,598.2c0.8-0.3,1.6-0.2,2.4,0.1c0.4,0.2,0.5-0.6,0.2-0.7c-0.9-0.4-1.8-0.4-2.7-0.1
				c-0.2,0.1-0.2,0.3-0.2,0.5C721.7,598.2,721.9,598.3,722.1,598.2z"/>
			<path class="st38" d="M719.2,597.1h0.5c0.4,0,0.7,0.4,0.7,0.9v4.7c0,0.5-0.3,0.9-0.7,0.9h-0.5c-0.4,0-0.7-0.4-0.7-0.9v-4.7
				C718.5,597.5,718.8,597.1,719.2,597.1z"/>
			<path class="st39" d="M720.6,595.2c1.2-0.4,2.5-0.4,3.7,0.1c0.4,0.1,0.5-0.6,0.2-0.7c-1.3-0.5-2.7-0.6-4-0.1
				C720.1,594.6,720.2,595.3,720.6,595.2z"/>
			<path class="st39" d="M716.8,595.2c-1.2-0.8-3-1.1-4,0.3c-0.3,0.3,0.2,0.9,0.4,0.5c0.8-1.1,2.3-0.8,3.3-0.1
				C716.9,596.1,717.2,595.5,716.8,595.2L716.8,595.2z"/>
			<path class="st39" d="M718.1,582.8c-4,0.9-7.4,4.2-8.8,8.5c-1.2,4-0.7,8.4-1,12.7c-0.2,3.7-1,7.2-2.3,10.5
				c-0.5,1.4-1.2,2.9-0.6,4.3c0.6,1.4,2.2,1.8,3.5,1.6c1.3-0.2,2.6-0.9,3.9-1.2c0.8-0.1,1.7-0.2,2-1c-0.3-1.2-0.2-2.5,0.4-3.5
				c0.3-0.5,0.8-1.1,0.7-1.7c-0.1-0.3-0.2-0.5-0.3-0.7c-1.6-2.5-3.9-4.7-4.6-7.8c-0.3-1.4-0.3-2.9-0.2-4.3c0.1-2.8,0.2-5.6,0.9-8.3
				s2.1-5.3,4.2-6.7c0.8-0.5,1.6-0.9,2.2-1.7"/>
			<path class="st39" d="M717.9,584.4c2.2,0.4,4.2,1.8,5.6,3.9c1.4,2.2,2.2,4.9,2.2,7.7c0,1.5-0.1,2.9-0.2,4.4
				c0,2.5,0.3,5.1-0.2,7.5c-0.3,1.2-0.8,2.2-1.3,3.3l-1.5,3.1c-0.3,0.7-0.7,1.5-0.7,2.3c-0.1,1.4,0.7,2.6,1.7,3.2
				c0.9,0.7,2,0.9,3,1.3c0.4,0.2,0.9,0.4,1.3,0.3c0.6-0.1,1-0.8,1.3-1.4l1.7-3c0.6-1,1.1-1.9,1.4-3c0.3-1.2,0.4-2.5,0.4-3.8
				c0.1-3,0.2-6.1-0.5-9c-0.4-1.5-0.9-2.8-1.3-4.3c-0.4-2-0.4-4-0.9-6c-0.5-2.1-1.5-4-2.9-5.4c-0.8-0.7-1.7-1.3-2.6-1.7
				c-3.3-1.6-7.1-1.7-10.1,0.7c1-0.6,2.1-0.7,3.1-0.2"/>
			<path d="M716.6,596.9c-0.3-0.2-0.6-0.2-0.9-0.1c-0.3,0.2-0.6,0.6-1,0.6s-0.4,0.8,0,0.8c0.2,0,0.5-0.1,0.7-0.3
				c0.3-0.2,0.6-0.6,0.9-0.4C716.6,597.8,717,597.1,716.6,596.9L716.6,596.9z"/>
			<ellipse class="st40" cx="719" cy="606.2" rx="0.8" ry="1"/>
			<ellipse class="st41" cx="719.9" cy="639.5" rx="0.5" ry="0.6"/>
			<path class="st47" d="M710.3,560v16.6c0,1.1-0.7,2-1.6,2h-1.1c-0.9,0-1.6-0.9-1.6-2V560c0-1.1,0.7-2,1.6-2h1.1
				C709.6,558,710.3,558.9,710.3,560z"/>
			<ellipse class="st42" cx="737.1" cy="608.6" rx="5.9" ry="40.3"/>

				<ellipse transform="matrix(0.4787 -0.878 0.878 0.4787 -156.3777 976.6373)" class="st42" cx="744.2" cy="620" rx="13.8" ry="3.8"/>

				<ellipse transform="matrix(0.9498 -0.3128 0.3128 0.9498 -146.7675 257.5341)" class="st42" cx="729.2" cy="586.2" rx="3.4" ry="19.2"/>
			<path class="st43" d="M732.8,639.5h10.4c3.6,0,6.5,3.7,6.5,8.3v17.4c0,4.6-2.9,8.3-6.5,8.3h-10.4c-3.6,0-6.5-3.7-6.5-8.3v-17.4
				C726.3,643.2,729.2,639.5,732.8,639.5z"/>
			<path class="st43" d="M727,633.7h22c1.6,0,3,1.7,3,3.8v3.9c0,2.1-1.3,3.8-3,3.8h-22c-1.6,0-3-1.7-3-3.8v-3.9
				C724,635.4,725.3,633.7,727,633.7z"/>
			<path class="st45" d="M731.1,592.2L731.1,592.2c0.2-2.5-0.4-3,2.3-1.8c33,15.5,30.4,31.5-4.3,34.9c-2.8,0.3-0.6-0.8-2.6-1.9
				c0.2,0,0.2,0,0-0.1c1.5-1.5-0.4-2.6,2.1-3c31.3-4.4,29.9-10,4.4-24.6C731,594.6,730.8,594.7,731.1,592.2z"/>
			<path class="st45" d="M726.6,590.1c0.1-1.3,0.3-2.6,0.7-3.9c0.9-2.7,2.1-3.1,4.2-2.9c0.4,0,0.9,0.2,1.3,0.5
				c2.1,1.5,2.8,3.4,3.1,6.5c0.1,1.2,0.1,3.4-0.3,4.5c-0.9,2.8-2.1,3-4.3,3.1c-0.5,0-1.5-0.3-1.9-0.8
				C727.6,595.1,726.6,593.3,726.6,590.1z"/>
			<path class="st45" d="M730.1,602.2c-0.1-1.4-0.2-3.4-0.1-4.8c0.1-1.2,0.6-1.7,1.5-1.4l0,0c0.9,0.3,1.3,1.2,1.4,2.3
				c0.1,1.4,0.1,2.9,0,4.3c-0.2,1.1-0.6,1.9-1.4,1.7l0,0C730.4,604.3,730.2,603.4,730.1,602.2z"/>
			<path class="st45" d="M722.4,587.9c0.1-0.2-0.1,0,0.2-0.3c0.2-0.3,0.6-0.8,1.1-0.5c1.5,0.8,3.2,1.6,4.6,2.6
				c0.5,0.4,0.8,1,0.6,1.7l0,0c-0.1,0.7-0.4,0.9-1,0.5c-1.6-1-3.3-1.8-4.9-2.6C722.4,589.1,722.4,588.6,722.4,587.9z"/>
			<path class="st45" d="M721.8,594.4c-0.3-0.3,0-0.1-0.2-0.3c0.2-0.6,0.2-1.2,0.9-1.4c1.7-0.3,3.6-0.2,5.3,0c0.6,0.1,1,0.5,1.2,1.1
				l0,0c0.2,0.7,0.1,1.3-0.5,1.3c-1.8-0.1-3.8-0.4-5.6,0C722.2,595.2,722.1,594.7,721.8,594.4z"/>
			<path class="st45" d="M724.1,582.9L724.1,582.9c0.2-0.8,0.5-1.2,1.2-1.1c1.9,0.4,3,1.9,3.7,4c0.3,0.8,0.3,1.3,0,2
				c0.1,0.1,0.1,0.1,0,0c-0.3,0.6-0.7,0.3-1-0.3c-0.8-1.7-1.6-3.1-3.3-3.4C724.2,584,724,583.6,724.1,582.9z"/>
			<path class="st45" d="M728.2,578.7C728.3,578.3,728,578.6,728.2,578.7c0.3-0.7,0.9-0.8,1.5-0.3c1,1,1.8,2.3,1.9,4
				c0.1,0.9-0.3,1.3-0.8,1.7l0,0c-0.5,0.4-0.7,0-0.8-0.6c-0.2-1.2-0.8-2.3-1.5-3.1C728.1,579.8,727.8,579.3,728.2,578.7z"/>
			<ellipse class="st32" cx="719.1" cy="599.3" rx="9.5" ry="16.4"/>
			<path class="st33" d="M716.6,676.7c-0.9,0.1-1.8,0.1-2.7,0c-6.2-1-10.2-6.5-9-14.1c1.4-9.2,2.5-23.5,4.9-31.4
				c2-6.7-5.5-9.8,6.6-13c1.7-0.4,2.3-0.4,3.2-0.4c6.3,0.2,9.8,5,9.1,12.8c-0.8,9.2-4.5,24.5-4.1,32.9
				C724.9,670.4,722.5,675.9,716.6,676.7z"/>
			<path class="st33" d="M721.3,619.6c-1.6,0.6-3.3,0.5-4.9-0.1c-1.3-0.6-1.5-1.7-1.4-3.3c0-0.1,0-0.2,0.1-0.3
				c0.4-1.1,1.1-2.3,2.2-1.8c1.2,0.5,1.8,0.6,3,0.1c1.1-0.4,1.9,0.6,2.4,1.9c0,0.1,0.1,0.2,0.1,0.3
				C722.8,617.9,722.6,619.1,721.3,619.6z"/>
			<path class="st46" d="M702.5,660L702.5,660c-0.6,0.9-0.8,1.4-2.3,0.2c-18.7-14.9-6.8-24.9,8.9-39.3c1.3-1.2,1.8-0.8,2.5,0l0,0
				c0.7,0.8,1.1,1.4-0.2,2.6c-16,14.4-24.2,19.9-9.3,33.7C703.4,658.3,703.1,659.1,702.5,660z"/>
			<path class="st46" d="M706.2,661.6c-0.5,0.6-1.2,1.3-1.8,1.9c-1.5,1.5-3.2,1.5-4.9,0.2c-0.4-0.3-1-0.9-1.3-1.2
				c-1.3-1.2-1.2-2.3-0.2-3.7c0.4-0.6,1.4-1.8,1.9-2.3c1.2-1.4,3.2-3,4.5-1.1c0.3,0.4,0.8,1.2,1.1,1.6
				C706.9,658.3,707.6,660,706.2,661.6z"/>
			<path class="st46" d="M707.4,655.4c-1,0.1-1.9,0.3-2.4,1.2c-0.4,0.7-1.1,0.6-1.5,0l0,0c-0.4-0.6-0.4-1.4,0.2-2.1
				c0.7-0.8,2.3-1.4,3.3-1.5c0.9-0.1,1.4,0.4,1.6,1.1l0,0C708.7,654.8,708.3,655.4,707.4,655.4z"/>
			<path class="st46" d="M708.4,664.9L708.4,664.9c-0.4,0.3-0.9,0.2-1.2-0.2c-0.9-1.1-1.5-2.4-2.7-3.2c-0.4-0.3-0.3-0.7,0-1l0,0
				c0.4-0.3,0.8-0.4,1.2-0.1c1.2,0.8,2.1,2.2,3,3.4C708.9,664.2,708.8,664.6,708.4,664.9z"/>
			<path class="st46" d="M711.4,660.3L711.4,660.3c-0.1,0.4-0.6,0.7-1.1,0.6c-1.4-0.5-2.8-1-4.3-0.9c-0.4,0.1-0.8-0.3-0.9-0.8l0,0
				c-0.1-0.4,0-0.8,0.4-1c0.1,0,0.2-0.1,0.3,0c1.7,0.1,3.4,0.5,5.1,1C711.3,659.4,711.5,659.9,711.4,660.3z"/>
			<path class="st46" d="M705.5,667.6L705.5,667.6c-0.4,0.2-1,0.1-1.2-0.4c-0.5-1.3-1.6-2.7-2.1-4.1c-0.2-0.5,0.2-0.7,0.5-0.9l0,0
				c0.3-0.1,0.9-0.2,1.1,0.3c0.5,1.3,1.5,2.6,2.1,3.9C706.2,667,705.9,667.4,705.5,667.6z"/>
			<path class="st46" d="M700.7,669L700.7,669c-0.5,0-0.9-0.3-0.9-0.9c-0.1-1.1-0.2-2.7-0.3-3.8c0-0.6,0.3-0.9,0.8-0.9l0,0
				c0.5,0,0.9,0.3,0.9,0.9c0.1,1.1,0.2,2.6,0.3,3.7C701.5,668.6,701.2,669,700.7,669z"/>
			<path class="st34" d="M730.9,632.8c-0.2,3.4-2.4,6.1-5,5.4s-4.3-3-4.1-6.2c0.2-3.2,2.3-5.1,4.8-5.2
				C729.2,626.7,731.1,629.4,730.9,632.8z"/>
			<ellipse class="st34" cx="714.7" cy="632.2" rx="4.9" ry="5.3"/>
			<ellipse class="st35" cx="715.3" cy="632.1" rx="1.4" ry="1.7"/>
			<ellipse class="st35" cx="726.5" cy="632.1" rx="1.4" ry="1.7"/>
			<ellipse class="st36" cx="715.3" cy="632.3" rx="0.6" ry="0.7"/>
			<ellipse class="st36" cx="726.5" cy="632.1" rx="0.6" ry="0.7"/>
			<ellipse class="st37" cx="716.5" cy="597.8" rx="0.8" ry="1"/>
			<path class="st37" d="M722.1,598.2c0.8-0.3,1.6-0.2,2.4,0.1c0.4,0.2,0.5-0.6,0.2-0.7c-0.9-0.4-1.8-0.4-2.7-0.1
				c-0.2,0.1-0.2,0.3-0.2,0.5C721.7,598.2,721.9,598.3,722.1,598.2z"/>
			<path class="st38" d="M719.2,597.1h0.5c0.4,0,0.7,0.4,0.7,0.9v4.7c0,0.5-0.3,0.9-0.7,0.9h-0.5c-0.4,0-0.7-0.4-0.7-0.9v-4.7
				C718.5,597.5,718.8,597.1,719.2,597.1z"/>
			<path class="st39" d="M720.6,595.2c1.2-0.4,2.5-0.4,3.7,0.1c0.4,0.1,0.5-0.6,0.2-0.7c-1.3-0.5-2.7-0.6-4-0.1
				C720.1,594.6,720.2,595.3,720.6,595.2z"/>
			<path class="st39" d="M716.8,595.2c-1.2-0.8-3-1.1-4,0.3c-0.3,0.3,0.2,0.9,0.4,0.5c0.8-1.1,2.3-0.8,3.3-0.1
				C716.9,596.1,717.2,595.5,716.8,595.2L716.8,595.2z"/>
			<path class="st39" d="M718.1,582.8c-4,0.9-7.4,4.2-8.8,8.5c-1.2,4-0.7,8.4-1,12.7c-0.2,3.7-1,7.2-2.3,10.5
				c-0.5,1.4-1.2,2.9-0.6,4.3c0.6,1.4,2.2,1.8,3.5,1.6c1.3-0.2,2.6-0.9,3.9-1.2c0.8-0.1,1.7-0.2,2-1c-0.3-1.2-0.2-2.5,0.4-3.5
				c0.3-0.5,0.8-1.1,0.7-1.7c-0.1-0.3-0.2-0.5-0.3-0.7c-1.6-2.5-3.9-4.7-4.6-7.8c-0.3-1.4-0.3-2.9-0.2-4.3c0.1-2.8,0.2-5.6,0.9-8.3
				s2.1-5.3,4.2-6.7c0.8-0.5,1.6-0.9,2.2-1.7"/>
			<path class="st39" d="M717.9,584.4c2.2,0.4,4.2,1.8,5.6,3.9c1.4,2.2,2.2,4.9,2.2,7.7c0,1.5-0.1,2.9-0.2,4.4
				c0,2.5,0.3,5.1-0.2,7.5c-0.3,1.2-0.8,2.2-1.3,3.3l-1.5,3.1c-0.3,0.7-0.7,1.5-0.7,2.3c-0.1,1.4,0.7,2.6,1.7,3.2
				c0.9,0.7,2,0.9,3,1.3c0.4,0.2,0.9,0.4,1.3,0.3c0.6-0.1,1-0.8,1.3-1.4l1.7-3c0.6-1,1.1-1.9,1.4-3c0.3-1.2,0.4-2.5,0.4-3.8
				c0.1-3,0.2-6.1-0.5-9c-0.4-1.5-0.9-2.8-1.3-4.3c-0.4-2-0.4-4-0.9-6c-0.5-2.1-1.5-4-2.9-5.4c-0.8-0.7-1.7-1.3-2.6-1.7
				c-3.3-1.6-7.1-1.7-10.1,0.7c1-0.6,2.1-0.7,3.1-0.2"/>
			<path d="M716.6,596.9c-0.3-0.2-0.6-0.2-0.9-0.1c-0.3,0.2-0.6,0.6-1,0.6s-0.4,0.8,0,0.8c0.2,0,0.5-0.1,0.7-0.3
				c0.3-0.2,0.6-0.6,0.9-0.4C716.6,597.8,717,597.1,716.6,596.9L716.6,596.9z"/>
			<ellipse class="st40" cx="719" cy="606.2" rx="0.8" ry="1"/>
			<ellipse class="st41" cx="717.3" cy="659.6" rx="0.5" ry="0.6"/>
			<path class="st48" d="M777.9,529.6l-0.1,204.5c0,1.7-1.1,3-2.4,3l-121.2-0.1c-1.3,0-2.4-1.4-2.4-3l0.1-204.5c0-1.7,1.1-3,2.4-3
				l121.2,0.1C776.9,526.6,777.9,527.9,777.9,529.6z"/>
		</g>
		<rect x="1140.3" y="509.3" class="st49" width="142.3" height="225.8"/>
		<ellipse class="st24" cx="1215.3" cy="612.5" rx="47.8" ry="61"/>
		<ellipse class="st25" cx="1215.2" cy="612.7" rx="44.4" ry="56.6"/>
		<ellipse class="st24" cx="1215.2" cy="612.7" rx="41.9" ry="53.4"/>
		<path class="st26" d="M1189.9,579.5h50c4.2,0,7.6,4.3,7.6,9.7v0c0,5.4-3.4,9.7-7.6,9.7h-50c-4.2,0-7.6-4.3-7.6-9.7v0
			C1182.3,583.9,1185.7,579.5,1189.9,579.5z"/>
		<path class="st26" d="M1238.6,609.9l-15.4,33.2c-3.9,8.4-13.5,8.3-17.3-0.2l-14.8-33.5c-3.8-8.5,1.1-19,8.8-19l30.2,0.3
			C1237.7,590.8,1242.5,601.5,1238.6,609.9z"/>
		<path class="st27" d="M1235.6,611.7l-12.1,26.8c-3.9,8.5-13.5,8.5-17.3-0.1l-12.1-27.3c-3.8-8.6,1.1-19.1,8.9-19l24.2,0.6
			C1234.8,592.8,1239.4,603.3,1235.6,611.7z"/>
		<ellipse class="st28" cx="1200.9" cy="600.9" rx="6" ry="5.2"/>
		<ellipse class="st28" cx="1214.9" cy="623.3" rx="6" ry="5.2"/>
		<ellipse class="st28" cx="1204.7" cy="614.4" rx="6" ry="5.2"/>
		<ellipse class="st28" cx="1222.8" cy="612.6" rx="6" ry="5.2"/>
		<ellipse class="st28" cx="1214.8" cy="636.5" rx="6" ry="5.2"/>
		<ellipse class="st28" cx="1214.8" cy="601.9" rx="6" ry="5.2"/>
		<ellipse class="st28" cx="1231.3" cy="602.2" rx="6" ry="5.2"/>
		<ellipse class="st29" cx="1203.6" cy="610.5" rx="0.2" ry="0.3"/>
		<ellipse class="st29" cx="1201" cy="613.3" rx="0.2" ry="0.2"/>
		<ellipse class="st29" cx="1204" cy="615.4" rx="0.2" ry="0.2"/>
		<ellipse class="st29" cx="1206.6" cy="611.4" rx="0.1" ry="0.2"/>
		<ellipse class="st29" cx="1207.5" cy="614.3" rx="0.1" ry="0.2"/>
		<ellipse class="st29" cx="1204.8" cy="612.8" rx="0.2" ry="0.2"/>
		<ellipse class="st29" cx="1205.7" cy="616.8" rx="0.2" ry="0.2"/>
		<ellipse class="st29" cx="1209" cy="613.2" rx="0.1" ry="0.1"/>
		<ellipse class="st29" cx="1201.7" cy="616.3" rx="0.2" ry="0.3"/>
		<ellipse class="st29" cx="1220.8" cy="609.5" rx="0.3" ry="0.4"/>
		<ellipse class="st29" cx="1219.4" cy="612.8" rx="0.3" ry="0.2"/>
		<ellipse class="st29" cx="1222.8" cy="611.1" rx="0.2" ry="0.3"/>
		<ellipse class="st29" cx="1224.4" cy="609.3" rx="0.1" ry="0.2"/>
		<ellipse class="st29" cx="1225.9" cy="612.3" rx="0.2" ry="0.3"/>
		<ellipse class="st29" cx="1222.7" cy="614.3" rx="0.1" ry="0.2"/>
		<ellipse class="st29" cx="1214.4" cy="621.2" rx="0.3" ry="0.4"/>
		<ellipse class="st29" cx="1216.5" cy="621" rx="0.1" ry="0.2"/>
		<ellipse class="st29" cx="1211.3" cy="621.9" rx="0.2" ry="0.3"/>
		<ellipse class="st29" cx="1212.9" cy="625" rx="0.1" ry="0.1"/>
		<ellipse class="st29" cx="1215.9" cy="624.7" rx="0.2" ry="0.2"/>
		<ellipse class="st29" cx="1214.2" cy="623.5" rx="0.2" ry="0.2"/>
		<ellipse class="st29" cx="1217.7" cy="623" rx="0.2" ry="0.2"/>
		<ellipse class="st29" cx="1213.7" cy="633.7" rx="0.2" ry="0.3"/>
		<ellipse class="st29" cx="1210.5" cy="636.4" rx="0.2" ry="0.2"/>
		<ellipse class="st29" cx="1213.2" cy="637.6" rx="0.2" ry="0.3"/>
		<path class="st29" d="M1215.9,635.8c0.1,0,0.2,0.1,0.2,0.2c0,0.1-0.1,0.2-0.2,0.2c-0.1,0-0.2-0.1-0.2-0.2
			C1215.7,635.9,1215.8,635.8,1215.9,635.8z"/>
		<ellipse class="st29" cx="1217.9" cy="636.3" rx="0.2" ry="0.3"/>
		<ellipse class="st29" cx="1215.9" cy="638.6" rx="0.2" ry="0.2"/>
		<ellipse class="st29" cx="1216.5" cy="633.3" rx="0.1" ry="0.2"/>
		<ellipse class="st29" cx="1214.5" cy="599.3" rx="0.3" ry="0.3"/>
		<ellipse class="st29" cx="1212.3" cy="600.1" rx="0.1" ry="0.2"/>
		<ellipse class="st29" cx="1210.6" cy="602.5" rx="0.3" ry="0.3"/>
		<ellipse class="st29" cx="1214.6" cy="603.7" rx="0.2" ry="0.2"/>
		<ellipse class="st29" cx="1214.2" cy="601.4" rx="0.1" ry="0.1"/>
		<ellipse class="st29" cx="1216.8" cy="600.1" rx="0.1" ry="0.2"/>
		<ellipse class="st29" cx="1218.4" cy="599.3" rx="0.3" ry="0.3"/>
		<ellipse class="st29" cx="1217.3" cy="603.1" rx="0.2" ry="0.3"/>
		<ellipse class="st29" cx="1219.2" cy="602.3" rx="0.1" ry="0.2"/>
		<ellipse class="st29" cx="1228" cy="600.1" rx="0.1" ry="0.2"/>
		<ellipse class="st29" cx="1230" cy="598.2" rx="0.1" ry="0.2"/>
		<ellipse class="st29" cx="1228.4" cy="603.7" rx="0.2" ry="0.3"/>
		<ellipse class="st29" cx="1231" cy="603.1" rx="0.2" ry="0.3"/>
		<ellipse class="st29" cx="1229.8" cy="600.6" rx="0.3" ry="0.3"/>
		<ellipse class="st29" cx="1202" cy="600.1" rx="0.1" ry="0.2"/>
		<ellipse class="st29" cx="1198.9" cy="599.4" rx="0.1" ry="0.2"/>
		<ellipse class="st29" cx="1196.4" cy="599.8" rx="0.2" ry="0.2"/>
		<ellipse class="st29" cx="1197.7" cy="602.6" rx="0.2" ry="0.3"/>
		<ellipse class="st29" cx="1200" cy="603.5" rx="0.1" ry="0.2"/>
		<ellipse class="st29" cx="1202.2" cy="603" rx="0.1" ry="0.2"/>
		<ellipse class="st29" cx="1204.1" cy="599.4" rx="0.1" ry="0.2"/>
		<ellipse class="st29" cx="1200.2" cy="597.4" rx="0.1" ry="0.1"/>
		<ellipse class="st29" cx="1200.9" cy="601.4" rx="0.1" ry="0.1"/>
		<ellipse class="st29" cx="1202.6" cy="598.1" rx="0.3" ry="0.3"/>
		<path class="st30" d="M1205.4,599.7c-0.2,1.5-1,2.7-2,3.4c-0.1,0.1-0.2,0.3-0.1,0.5c0.1,0.2,0.2,0.2,0.4,0.1
			c1.1-0.8,2-2.2,2.2-3.9C1206,599.5,1205.5,599.3,1205.4,599.7z"/>
		<path class="st30" d="M1202.3,604.1c0.2,0,0.3-0.2,0.3-0.4c0-0.2-0.1-0.4-0.3-0.4s-0.3,0.2-0.3,0.4
			C1202,603.9,1202.2,604.1,1202.3,604.1z"/>
		<path class="st30" d="M1212.1,604.5c1.1,1,2.5,1.4,3.9,1c0.4-0.1,0.2-0.8-0.2-0.7c-1.2,0.3-2.4,0-3.4-1
			C1212,603.5,1211.8,604.2,1212.1,604.5L1212.1,604.5z"/>
		<path class="st30" d="M1218.4,604.1c0.2,0,0.3-0.2,0.3-0.4c0-0.2-0.1-0.4-0.3-0.4s-0.3,0.2-0.3,0.4
			C1218.1,603.9,1218.2,604.1,1218.4,604.1z"/>
		<path class="st30" d="M1226.4,599.9c-0.3,1-0.7,2.1-0.4,3.3c0.2,0.9,0.8,1.5,1.5,1.5c0.4,0,0.4-0.7,0-0.7
			c-1.5-0.1-0.9-2.6-0.5-3.7C1227.1,599.8,1226.6,599.5,1226.4,599.9z"/>
		<path class="st30" d="M1229.8,605.6v-0.2c0-0.2-0.1-0.4-0.3-0.4c-0.2,0-0.3,0.2-0.3,0.4v0.2c0,0.2,0.1,0.4,0.3,0.4
			C1229.7,606,1229.8,605.8,1229.8,605.6z"/>
		<path class="st30" d="M1226.8,610.5c1,1.6,0.5,3.8-1.1,4.5c-0.4,0.2-0.2,0.9,0.2,0.7c1.9-0.8,2.6-3.6,1.4-5.6
			C1227.1,609.7,1226.6,610.1,1226.8,610.5L1226.8,610.5z"/>
		<path class="st30" d="M1224.6,616.5l0.3-0.3c0.1-0.1,0.1-0.4,0-0.5c-0.1-0.1-0.3-0.1-0.4,0l-0.3,0.3c-0.1,0.1-0.1,0.4,0,0.5
			C1224.3,616.6,1224.5,616.6,1224.6,616.5z"/>
		<path class="st30" d="M1218.5,620.4c1.4,1.1,1.2,3.5-0.2,4.4c-0.3,0.2,0,0.9,0.3,0.6c1.8-1.2,1.9-4.3,0.2-5.7
			C1218.5,619.6,1218.2,620.2,1218.5,620.4L1218.5,620.4z"/>
		<path class="st30" d="M1217.5,626.2v-0.2c0-0.2-0.1-0.4-0.3-0.4s-0.3,0.2-0.3,0.4v0.2c0,0.2,0.1,0.4,0.3,0.4
			S1217.5,626.4,1217.5,626.2z"/>
		<path class="st30" d="M1199.6,613c-0.6,1.3-0.3,3,0.8,3.8c0.3,0.3,0.7,0.4,1.1,0.4c0.4,0,0.4-0.7,0-0.7c-0.9,0-1.6-0.9-1.6-2
			c0-0.4,0.1-0.8,0.2-1.1C1200.2,613,1199.7,612.6,1199.6,613z"/>
		<path class="st30" d="M1203.6,617.9h0.1c0.2,0,0.3-0.2,0.3-0.4c0-0.2-0.1-0.4-0.3-0.4h-0.1c-0.2,0-0.3,0.2-0.3,0.4
			C1203.3,617.7,1203.4,617.9,1203.6,617.9z"/>
		<path class="st30" d="M1210.4,633.7c-1.4,2.5-0.2,5.8,2.2,6.1c0.4,0,0.4-0.7,0-0.7c-2-0.3-2.8-3-1.7-5
			C1211.1,633.7,1210.6,633.4,1210.4,633.7L1210.4,633.7z"/>
	</g>
	<path class="st10" d="M783.8,644.5h38c6.6,0,12-5.4,12-12v-0.2c0-6.6-5.4-12-12-12h-38c-6.6,0-12,5.4-12,12v0.2
		C771.8,639.1,777.2,644.5,783.8,644.5z"/>
	<path class="st10" d="M783.8,689.2h38c6.6,0,12-5.4,12-12v-2c0-6.6-5.4-12-12-12h-38c-6.6,0-12,5.4-12,12v2
		C771.8,683.8,777.2,689.2,783.8,689.2z"/>
	<path class="st10" d="M783.8,729.2h33.8c6.6,0,12-5.4,12-12v-3.3c0-6.6-5.4-12-12-12h-33.8c-6.6,0-12,5.4-12,12v3.3
		C771.8,723.8,777.2,729.2,783.8,729.2z"/>
	<path class="st21" d="M797.6,632.4L797.6,632.4c0,4.8,0,4.8,0,8.7l-10.5,0c-5,0-9.1-3.9-9.1-8.7l0,0c0-4.8,4.1-8.7,9.1-8.7l10.5,0
		C797.6,627.6,797.6,627.6,797.6,632.4z"/>
	<path class="st21" d="M797.6,676.2L797.6,676.2c0,4.8,0,4.8,0,8.7l-10.5,0c-5,0-9.1-3.9-9.1-8.7l0,0c0-4.8,4.1-8.7,9.1-8.7l10.5,0
		C797.6,671.4,797.6,671.4,797.6,676.2z"/>
	<path class="st21" d="M797.6,715.5L797.6,715.5c0,4.8,0,4.8,0,8.7l-10.5,0c-5,0-9.1-3.9-9.1-8.7l0,0c0-4.8,4.1-8.7,9.1-8.7l10.5,0
		C797.6,710.7,797.6,710.7,797.6,715.5z"/>
	<path class="st10" d="M783.8,766.4h33.8c6.6,0,12-5.4,12-12v-3.3c0-6.6-5.4-12-12-12h-33.8c-6.6,0-12,5.4-12,12v3.3
		C771.8,761,777.2,766.4,783.8,766.4z"/>
	<path class="st21" d="M797.6,752.8L797.6,752.8c0,4.8,0,4.8,0,8.7l-10.5,0c-5,0-9.1-3.9-9.1-8.7l0,0c0-4.8,4.1-8.7,9.1-8.7l10.5,0
		C797.6,748,797.6,748,797.6,752.8z"/>
	<g>
		<rect x="867.3" y="338" class="st50" width="141.9" height="226"/>
		<path class="st51" d="M961.8,479.3c-2.6,12.4,3.2,24.5,2,25.2c-8.6,5-7.4-7.4-7.2-21c0.2-13.6-1.3-22,0.8-25.2
			C960.4,453.6,973.7,422.1,961.8,479.3z"/>
		<path class="st52" d="M932.9,425.3c-10.4,2.7-6.7-7.6-10.7-6.2c-8,2.6-1,15-10.9,19.9c-9.2,4.6-4.8-26.6,6.1-28.7
			C935.2,406.8,936.2,424.5,932.9,425.3z"/>
		<path class="st52" d="M968.1,444.9c0.7-15.1,0.7-32-6.6-35.1c-6.5-2.7-6.3,16.3-6.8,33.1c-0.5,14.6-22.5,20.9-8.5,28.3
			C952.6,474.5,967.3,463.3,968.1,444.9z"/>
		<path class="st51" d="M928.9,451.6c-2,14.7-14.2,26.6-15.1,22.2c-1.4-7,6.4-2.5,1.4-20.5c-2.5-8.9,4.9-19.6,8.4-18.7
			C927.1,435.5,930,442.9,928.9,451.6z"/>
		<path class="st52" d="M966.7,452.7c-2,10.8-16,25.9-29.8,14.3c-20.4-17.1-30.2-19.9-28.8-30.8c2.1-15.9,12.3-4.8,33-11.8
			C958.3,418.5,968.7,441.9,966.7,452.7z"/>
		<path class="st53" d="M945.8,485.4c-3.4,18.6,9.3,23.5,3.6,26c-10.4,4.6-9.8-8.4-9.8-22.1c0-13.6-1.4-24.7,1.9-24.7
			C944.8,464.7,951,457.3,945.8,485.4z"/>
		<path class="st53" d="M917,455.4c-2.6,7.6-11.7,26.6-12.6,22.2c-1.4-7,3.9-2.5-1-20.5c-2.5-8.9,5-29.1,8.5-28.2
			C915.3,429.8,919.8,447.3,917,455.4z"/>
		<path class="st53" d="M903.9,476.7c-0.2-4.3,4-5.7,3.4,0.1c-1.4,13.2,4.4,17.3,0.8,17.7c0,0-4.5,0.7-4.4-0.4
			C903.8,484.2,904.2,484.5,903.9,476.7z"/>
		<path class="st51" d="M913.8,473.4c-0.2-4.3,4-5.7,3.4,0.1c-1.3,13.2,6.8,16.2,3.2,16.6c0,0-4.9,1-4.9-0.1
			C915.7,480.1,914.1,481.1,913.8,473.4z"/>
		<path class="st53" d="M955.1,400.5c0-6.2,2.5-10.9,4.6-10.9s5.6,10.2,5.6,16.5"/>
		<path class="st53" d="M941,417.2c-2-3.7-6.8-15.4-4.3-17.1c1.2-0.8,5.6,1.6,8.9,4.7"/>
		<path class="st54" d="M941.3,414.7c-1.4-2.6-4.8-10.8-3.1-12c0.8-0.6,4,1.2,6.3,3.4"/>
		<path class="st52" d="M941.6,413.1c-1-1.8-3.3-7.5-2.2-8.3c0.6-0.4,2.8,0.8,4.4,2.3"/>
		<path class="st54" d="M969,412.1c1.7,10.2-1.9,16.9-8.7,22.3c-7,5.6-19.1-2.9-19.5-12.1s2.4-19,10.4-21.4
			C959.2,398.6,968.2,407.4,969,412.1z"/>
		<path class="st54" d="M956.3,400.7c0-4.4,1.8-8.1,3.3-8.1c1.5,0,4,7.3,4,11.7"/>
		<path class="st52" d="M957.8,401.2c0-2.6,1-4.7,1.9-4.7s2.3,4.2,2.3,6.7"/>
		<path class="st53" d="M968.9,412.1c1.7,10.2-2.3-4.5-15.1,1.1c-11,4.8-12.7,18.4-13.1,9.2c-0.4-9.2,2.4-19,10.4-21.4
			C959.1,398.6,968.1,407.4,968.9,412.1z"/>
		<path class="st55" d="M959.2,421.3c0.4,1.4-1.3,3.5-1.7,3.8c-0.4,0.3-2.8,0.1-3.2-1.4c-0.4-1.4-1.4-2.6,1.7-3.8
			C959,418.7,958.7,419.9,959.2,421.3z"/>
		<ellipse class="st56" cx="950" cy="417.2" rx="1.2" ry="1.6"/>
		<path class="st56" d="M950,419.9c-1.2,0-2.1-1.2-2.1-2.8s1-2.8,2.1-2.8s2.1,1.2,2.1,2.8l0,0C952.1,418.7,951.2,419.9,950,419.9z
			 M950,416.8c-0.2,0-0.3,0.2-0.3,0.4c0,0.2,0.1,0.4,0.3,0.4c0.2,0,0.3-0.2,0.3-0.4l0,0C950.3,417,950.2,416.8,950,416.8z"/>
		<ellipse class="st56" cx="959.3" cy="413.1" rx="1.2" ry="1.6"/>
		<path class="st56" d="M959.3,415.8c-1.2,0-2.1-1.2-2.1-2.8c0-1.5,1-2.8,2.1-2.8s2.1,1.2,2.1,2.8v0
			C961.4,414.6,960.5,415.8,959.3,415.8z M959.3,412.7c-0.2,0-0.3,0.2-0.3,0.4s0.1,0.4,0.3,0.4s0.3-0.2,0.3-0.4c0,0,0,0,0,0
			C959.6,412.9,959.5,412.7,959.3,412.7z"/>
		<ellipse class="st57" cx="950" cy="417.2" rx="0.9" ry="1.2"/>
		<ellipse class="st15" cx="950.7" cy="416" rx="0.5" ry="0.7"/>
		<ellipse class="st57" cx="959.3" cy="413" rx="0.9" ry="1.2"/>
		<ellipse class="st15" cx="960" cy="411.7" rx="0.5" ry="0.7"/>
	</g>
	<path class="st11" d="M879.3,458.9l-45.1-10.4c-6.7-1.5-10.9-8.1-9.3-14.5l0.3-1.3c1.6-6.4,8.4-10.4,15.1-8.9l45.1,10.4
		c6.7,1.5,10.9,8.1,9.3,14.5l-0.3,1.3C892.8,456.5,886,460.5,879.3,458.9z"/>
	<path class="st11" d="M864.5,492.1l-28.8-5.3c-6.8-1.3-11.2-7.6-9.9-14.1v0c1.3-6.5,7.9-10.8,14.7-9.5l28.8,5.3
		c6.8,1.3,11.2,7.6,9.9,14.1v0C877.9,489.1,871.3,493.4,864.5,492.1z"/>
	<path class="st22" d="M854.5,477.9L854.5,477.9c1.1-5,1.1-5,2-9.1l11,2.2c5.2,1,8.7,6,7.6,11v0c-1.1,5-6.2,8.3-11.5,7.2l-11-2.2
		C853.4,482.9,853.4,482.9,854.5,477.9z"/>
	<path class="st22" d="M870,443.6L870,443.6c1.1-5,1.1-5,2-9.1l11,2.2c5.2,1,8.7,6,7.6,11v0c-1.1,5-6.2,8.3-11.5,7.2l-11-2.2
		C869,448.6,869,448.6,870,443.6z"/>
	<path class="st10" d="M1136.3,771.2V706c0,0,0,0,0-0.1l30.1-68c2.7-6.1-0.3-13.2-6.7-15.7l-13.9-5.6c-6.4-2.6-13.8,0.3-16.4,6.4
		l-30.1,68c-0.8,1.8-1.1,3.7-0.9,5.5c0,0.3,0,0.6,0,0.9v114.3c0,6.6,5.6,12,12.5,12h10.3v59.3h120V771.2H1136.3z"/>
	<path class="st10" d="M1280.7,685.6l34.5-8.6c6.7-1.7,10.7-8.3,9-14.6l-0.9-3.3c-1.7-6.4-8.6-10.2-15.3-8.6l-34.5,8.6
		c-6.7,1.7-10.7,8.3-9,14.6l0.9,3.3C1267.2,683.5,1274.1,687.3,1280.7,685.6z"/>
	<path class="st10" d="M1285.4,720l29.9-7.5c6.7-1.7,10.7-8.3,9-14.6l-0.9-3.3c-1.7-6.4-8.6-10.2-15.3-8.6l-29.9,7.5
		c-6.7,1.7-10.7,8.3-9,14.6l0.9,3.3C1271.8,717.8,1278.7,721.6,1285.4,720z"/>
	<path class="st10" d="M1289.2,761.6l26.1-6.5c6.7-1.7,10.7-8.3,9-14.6l-0.9-3.3c-1.7-6.4-8.6-10.2-15.3-8.6l-26.1,6.5
		c-6.7,1.7-10.7,8.3-9,14.6l0.9,3.3C1275.6,759.4,1282.5,763.3,1289.2,761.6z"/>
	<path class="st9" d="M1139.3,643.5L1139.3,643.5c-5.5-2.6-5.5-2.6-10.1-4.7l5.6-11.1c2.7-5.3,9.4-7.5,15-5v0
		c5.5,2.6,7.9,9,5.2,14.3l-5.6,11.1C1144.8,646,1144.8,646,1139.3,643.5z"/>
	<path class="st9" d="M1288.2,669.8L1288.2,669.8c1.2,4.8,1.2,4.8,2.2,8.8l-10.6,2.5c-5,1.2-10.2-1.8-11.4-6.6v0
		c-1.2-4.8,1.9-9.8,6.9-10.9l10.6-2.5C1286.9,664.9,1286.9,664.9,1288.2,669.8z"/>
	<path class="st9" d="M1294.2,703.3L1294.2,703.3c1.4,4.6,1.4,4.7,2.5,8.5l-10.2,2.8c-4.9,1.3-10-1.4-11.4-6l0,0
		c-1.4-4.6,1.4-9.6,6.3-10.9l10.2-2.8C1292.8,698.6,1292.8,698.6,1294.2,703.3z"/>
	<path class="st9" d="M1296.9,745.5L1296.9,745.5c1.4,5.1,1.4,5.1,2.5,9.2l-10.4,2.6c-4.9,1.3-10.1-1.9-11.5-6.9v0
		c-1.4-5.1,1.5-10.2,6.5-11.5l10.4-2.6C1295.5,740.4,1295.5,740.4,1296.9,745.5z"/>
	<path class="st10" d="M663.2,675.2H613c-6.6,0-12-5.4-12-12V656c0-6.6,5.4-12,12-12h50.2c6.6,0,12,5.4,12,12v7.2
		C675.2,669.8,669.8,675.2,663.2,675.2z"/>
	<path class="st21" d="M648,659.6L648,659.6c-0.1-5.4,0-5.4-0.1-9.8l11.8-0.2c5.6-0.1,10.3,4.3,10.3,9.6l0,0
		c0.1,5.4-4.5,9.8-10.1,9.9l-11.8,0.2C648.1,665,648.1,665,648,659.6z"/>
	<rect x="1109.4" y="862.9" class="st58" width="143.2" height="214.6"/>
	<title>pic_nude_3</title>
	<g>
		<g id="Layer_1_1_">
			<path class="st59" d="M1389.2,537.8l0.1-224.8c0-0.1,0.1-0.2,0.2-0.2l141.3,0.1c0.1,0,0.2,0.1,0.2,0.2l-0.1,224.8
				c0,0.1-0.1,0.2-0.2,0.2l-141.3-0.1C1389.3,538,1389.2,537.9,1389.2,537.8z"/>
			<ellipse class="st32" cx="1462.6" cy="404.7" rx="9.2" ry="15.9"/>
			<path class="st33" d="M1464.3,424.4c-1.6,0.5-3.2,0.5-4.7-0.1c-1.3-0.5-1.5-1.7-1.3-3.2c0-0.1,0-0.2,0.1-0.3
				c0.4-1.1,1.1-2.2,2.1-1.7c1.1,0.5,1.7,0.6,2.9,0.1c1-0.4,1.9,0.6,2.3,1.8c0,0.1,0.1,0.2,0.1,0.3
				C1465.8,422.8,1465.6,423.9,1464.3,424.4z"/>
			<path class="st34" d="M1473.7,437.3c-0.2,3.3-2.3,5.9-4.8,5.2c-2.5-0.7-4.2-2.9-4-6c0.2-3.1,2.3-5,4.7-5.1
				C1472,431.3,1473.9,434,1473.7,437.3z"/>
			<ellipse class="st34" cx="1457.9" cy="436.7" rx="4.7" ry="5.2"/>
			<ellipse class="st35" cx="1458.5" cy="436.6" rx="1.3" ry="1.7"/>
			<ellipse class="st35" cx="1469.4" cy="436.6" rx="1.3" ry="1.7"/>
			<ellipse class="st36" cx="1458.5" cy="436.8" rx="0.5" ry="0.7"/>
			<ellipse class="st36" cx="1469.4" cy="436.6" rx="0.5" ry="0.7"/>
			<ellipse class="st37" cx="1459.7" cy="403.2" rx="0.8" ry="1"/>
			<path class="st37" d="M1465,403.6c0.8-0.3,1.6-0.2,2.3,0.1c0.4,0.2,0.5-0.6,0.2-0.7c-0.8-0.4-1.8-0.4-2.6-0.1
				c-0.2,0.1-0.2,0.3-0.2,0.5C1464.7,403.5,1464.9,403.7,1465,403.6z"/>
			<path class="st38" d="M1462.2,402.5h0.5c0.4,0,0.7,0.4,0.7,0.9v4.6c0,0.5-0.3,0.9-0.7,0.9h-0.5c-0.4,0-0.7-0.4-0.7-0.9v-4.6
				C1461.6,402.8,1461.9,402.5,1462.2,402.5z"/>
			<path class="st39" d="M1463.6,400.7c1.2-0.4,2.4-0.3,3.6,0.1c0.4,0.1,0.5-0.6,0.2-0.7c-1.3-0.5-2.6-0.6-3.9-0.1
				C1463.1,400.1,1463.3,400.8,1463.6,400.7z"/>
			<path class="st39" d="M1460.4,400.7c-1.2-0.8-2.9-1.1-3.9,0.2c-0.1,0.1-0.1,0.4,0,0.5c0.1,0.1,0.3,0.1,0.4,0
				c0.8-1,2.3-0.7,3.2-0.1C1460.4,401.5,1460.7,400.9,1460.4,400.7L1460.4,400.7z"/>
			<path class="st39" d="M1461.6,388.6c-3.8,0.8-7.2,4.1-8.5,8.3c-1.2,3.9-0.7,8.2-0.9,12.4c-0.2,3.6-1,7.1-2.3,10.2
				c-0.5,1.3-1.2,2.8-0.6,4.2c0.6,1.4,2.1,1.8,3.4,1.6c1.3-0.2,2.5-0.9,3.8-1.1c0.7-0.1,1.6-0.2,1.9-1c-0.3-1.2-0.2-2.4,0.4-3.4
				c0.3-0.5,0.8-1.1,0.7-1.7c-0.1-0.3-0.2-0.5-0.3-0.7c-1.6-2.5-3.8-4.6-4.4-7.6c-0.3-1.4-0.3-2.8-0.2-4.2c0.1-2.7,0.2-5.5,0.9-8.1
				c0.7-2.6,2-5.1,4.1-6.5c0.7-0.5,1.6-0.9,2.1-1.6"/>
			<path class="st39" d="M1461,390.1c2.1,0.3,4.1,1.7,5.4,3.8c1.3,2.1,2.1,4.8,2.1,7.5c0,1.4-0.1,2.9-0.2,4.3c0,2.5,0.3,5-0.2,7.3
				c-0.3,1.1-0.8,2.2-1.2,3.2l-1.4,3c-0.3,0.7-0.7,1.4-0.7,2.2c-0.1,1.3,0.7,2.5,1.6,3.1s1.9,0.9,2.9,1.3c0.4,0.2,0.8,0.4,1.3,0.3
				c0.6-0.1,1-0.8,1.3-1.3l1.7-2.9c0.5-0.9,1.1-1.9,1.4-3c0.3-1.2,0.4-2.4,0.4-3.7c0.1-2.9,0.2-6-0.5-8.8c-0.4-1.4-0.9-2.8-1.2-4.2
				c-0.4-1.9-0.4-3.9-0.9-5.8c-0.5-2.1-1.5-3.9-2.9-5.2c-0.8-0.7-1.6-1.3-2.5-1.7c-3.2-1.5-6.9-1.6-9.8,0.6c0.9-0.6,2-0.6,3-0.2"/>
			<path d="M1459.8,402.3c-0.3-0.2-0.6-0.2-0.9-0.1c-0.3,0.2-0.6,0.6-1,0.6c-0.4,0-0.4,0.7,0,0.7c0.2,0,0.5-0.1,0.7-0.2
				c0.3-0.2,0.6-0.6,0.9-0.4C1459.8,403.2,1460.1,402.5,1459.8,402.3L1459.8,402.3z"/>
			<ellipse class="st40" cx="1462.1" cy="411.4" rx="0.8" ry="1"/>
			<ellipse class="st41" cx="1463.5" cy="442.5" rx="0.5" ry="0.6"/>
			<ellipse class="st42" cx="1482" cy="408.4" rx="5.7" ry="39.2"/>

				<ellipse transform="matrix(0.4742 -0.8804 0.8804 0.4742 413.7655 1530.7943)" class="st42" cx="1488.5" cy="419" rx="13.4" ry="3.7"/>

				<ellipse transform="matrix(0.9501 -0.3119 0.3119 0.9501 -47.0192 479.0471)" class="st42" cx="1474.3" cy="386.5" rx="3.3" ry="18.7"/>
			<path class="st43" d="M1477.8,438.5h10.1c3.5,0,6.3,3.6,6.3,8.1v16.9c0,4.5-2.8,8.1-6.3,8.1h-10.1c-3.5,0-6.3-3.6-6.3-8.1v-16.9
				C1471.5,442.1,1474.3,438.5,1477.8,438.5z"/>
			<path class="st43" d="M1472.2,432.9h21.4c1.6,0,2.9,1.7,2.9,3.7v3.8c0,2-1.3,3.7-2.9,3.7h-21.4c-1.6,0-2.9-1.7-2.9-3.7v-3.8
				C1469.3,434.6,1470.6,432.9,1472.2,432.9z"/>
			<path class="st44" d="M1429.6,352.4l26.2,0.2c2.4,0,4.3,2.5,4.3,5.6l-0.6,112.3c0,3.1-2,5.5-4.4,5.5l-26.2-0.2
				c-2.4,0-4.3-2.5-4.3-5.6l0.6-112.3C1425.2,354.8,1427.2,352.4,1429.6,352.4z"/>
			<path class="st45" d="M1476.1,392.5L1476.1,392.5c0.2-2.4-0.4-3,2.2-1.7c32,15.1,29.5,30.7-4.2,34c-2.7,0.3-0.6-0.8-2.5-1.9
				c0.2,0,0.2,0,0-0.1c1.5-1.5-0.4-2.5,2.1-2.9c30.4-4.3,29-9.8,4.3-24C1476.1,394.7,1475.9,394.9,1476.1,392.5z"/>
			<path class="st45" d="M1471.8,390.4c0.1-1.3,0.3-2.6,0.7-3.8c0.9-2.6,2-3,4.1-2.9c0.4,0,0.9,0.2,1.2,0.5c2,1.4,2.7,3.3,3,6.3
				c0.1,1.2,0.1,3.3-0.3,4.3c-0.9,2.7-2,2.9-4.2,3.1c-0.5,0-1.5-0.3-1.9-0.7C1472.7,395.2,1471.8,393.5,1471.8,390.4z"/>
			<path class="st45" d="M1475.2,402.2c-0.1-1.3-0.2-3.3-0.1-4.6c0.1-1.2,0.6-1.7,1.4-1.3l0,0c0.8,0.3,1.2,1.2,1.3,2.3
				c0.1,1.4,0.1,2.8,0,4.2c-0.1,1.1-0.5,1.8-1.4,1.6l0,0C1475.5,404.2,1475.3,403.4,1475.2,402.2z"/>
			<path class="st45" d="M1467.7,388.3c0.1-0.1-0.1,0,0.2-0.3c0.2-0.3,0.6-0.8,1.1-0.5c1.4,0.8,3.1,1.5,4.4,2.6
				c0.5,0.4,0.7,0.9,0.6,1.6l0,0c-0.1,0.7-0.4,0.8-1,0.5c-1.5-0.9-3.2-1.7-4.8-2.6C1467.7,389.4,1467.7,388.9,1467.7,388.3z"/>
			<path class="st45" d="M1467.1,394.6c-0.2-0.3,0-0.1-0.2-0.3c0.2-0.6,0.2-1.2,0.8-1.3c1.7-0.3,3.4-0.2,5.1,0
				c0.6,0.1,0.9,0.4,1.2,1.1l0,0c0.2,0.6,0.1,1.3-0.5,1.3c-1.8-0.1-3.7-0.4-5.4,0C1467.6,395.4,1467.4,394.9,1467.1,394.6z"/>
			<path class="st45" d="M1469.4,383.4L1469.4,383.4c0.2-0.7,0.5-1.2,1.2-1c1.8,0.4,2.9,1.8,3.6,3.9c0.3,0.7,0.3,1.3,0,1.9
				c0.1,0.1,0.1,0.1,0,0c-0.3,0.6-0.7,0.3-0.9-0.3c-0.8-1.7-1.6-3-3.2-3.3C1469.5,384.4,1469.2,384.1,1469.4,383.4z"/>
			<path class="st45" d="M1473.3,379.2C1473.5,378.9,1473.2,379.2,1473.3,379.2c0.3-0.6,0.9-0.8,1.4-0.3c1,0.9,1.8,2.3,1.9,3.9
				c0.1,0.8-0.2,1.3-0.7,1.7l0,0c-0.5,0.4-0.7,0-0.8-0.6c-0.2-1.2-0.7-2.3-1.4-3.1C1473.3,380.4,1473,379.9,1473.3,379.2z"/>
			<ellipse class="st32" cx="1464.9" cy="399.4" rx="9.2" ry="15.9"/>
			<path class="st33" d="M1462.5,474.8c-0.9,0.1-1.8,0.1-2.6,0c-6-1-9.9-6.3-8.8-13.8c1.3-9,2.5-22.9,4.8-30.6
				c1.9-6.5-5.4-9.5,6.4-12.6c1.6-0.4,2.3-0.4,3.1-0.4c6.1,0.2,9.5,4.9,8.8,12.4c-0.8,9-4.3,23.8-4,32.1
				C1470.5,468.6,1468.2,473.9,1462.5,474.8z"/>
			<path class="st33" d="M1466.6,419.1c-1.6,0.5-3.2,0.5-4.7-0.1c-1.3-0.5-1.5-1.7-1.3-3.2c0-0.1,0-0.2,0.1-0.3
				c0.4-1.1,1.1-2.2,2.1-1.7c1.1,0.5,1.7,0.6,2.9,0.1c1-0.4,1.9,0.6,2.3,1.8c0,0.1,0.1,0.2,0.1,0.3
				C1468.1,417.5,1467.9,418.7,1466.6,419.1z"/>
			<path class="st46" d="M1448.8,458.5L1448.8,458.5c-0.6,0.9-0.8,1.3-2.3,0.2c-18.1-14.5-6.6-24.3,8.7-38.3c1.2-1.1,1.8-0.8,2.4,0
				l0,0c0.6,0.7,1.1,1.4-0.2,2.5c-15.6,14-23.5,19.4-9.1,32.9C1449.6,456.8,1449.4,457.6,1448.8,458.5z"/>
			<path class="st46" d="M1452.3,460c-0.5,0.6-1.2,1.3-1.8,1.8c-1.5,1.4-3.1,1.5-4.7,0.2c-0.4-0.3-1-0.9-1.3-1.2
				c-1.3-1.2-1.2-2.2-0.2-3.6c0.4-0.5,1.4-1.8,1.8-2.3c1.1-1.3,3.1-2.9,4.4-1c0.3,0.4,0.8,1.2,1.1,1.5
				C1453,456.8,1453.7,458.5,1452.3,460z"/>
			<path class="st46" d="M1453.6,454c-1,0.1-1.9,0.3-2.4,1.1c-0.4,0.7-1.1,0.6-1.5,0l0,0c-0.4-0.6-0.4-1.4,0.2-2.1
				c0.7-0.8,2.2-1.4,3.2-1.5c0.9-0.1,1.4,0.4,1.5,1.1l0,0C1454.8,453.4,1454.4,454,1453.6,454z"/>
			<path class="st46" d="M1454.5,463.2L1454.5,463.2c-0.4,0.3-0.9,0.2-1.2-0.2c-0.9-1.1-1.5-2.3-2.6-3.1c-0.4-0.3-0.3-0.7,0-1l0,0
				c0.3-0.3,0.8-0.4,1.2-0.1c1.2,0.8,2.1,2.1,2.9,3.3C1455,462.6,1454.9,463,1454.5,463.2z"/>
			<path class="st46" d="M1457.4,458.7L1457.4,458.7c-0.1,0.4-0.6,0.7-1.1,0.6c-1.4-0.5-2.7-1-4.2-0.8c-0.4,0.1-0.7-0.3-0.8-0.7l0,0
				c-0.1-0.4,0-0.8,0.3-1c0.1,0,0.2-0.1,0.3,0c1.7,0.1,3.3,0.4,4.9,1C1457.3,457.9,1457.5,458.4,1457.4,458.7z"/>
			<path class="st46" d="M1451.7,465.9L1451.7,465.9c-0.3,0.2-0.9,0.1-1.1-0.4c-0.5-1.3-1.5-2.7-2-4c-0.2-0.5,0.2-0.7,0.5-0.8l0,0
				c0.3-0.1,0.9-0.2,1,0.3c0.5,1.3,1.5,2.5,2,3.8C1452.3,465.3,1452.1,465.7,1451.7,465.9z"/>
			<path class="st46" d="M1447,467.3L1447,467.3c-0.5,0-0.9-0.3-0.9-0.8c-0.1-1.1-0.2-2.6-0.3-3.7c0-0.6,0.3-0.9,0.8-0.9l0,0
				c0.5,0,0.9,0.3,0.9,0.8c0.1,1.1,0.2,2.5,0.3,3.6C1447.8,466.9,1447.5,467.2,1447,467.3z"/>
			<path class="st34" d="M1476,432c-0.2,3.3-2.3,5.9-4.8,5.2c-2.5-0.7-4.2-2.9-4-6c0.2-3.1,2.3-5,4.7-5.1
				C1474.3,426,1476.2,428.7,1476,432z"/>
			<ellipse class="st34" cx="1460.2" cy="431.4" rx="4.7" ry="5.2"/>
			<ellipse class="st35" cx="1460.8" cy="431.3" rx="1.3" ry="1.7"/>
			<ellipse class="st35" cx="1471.7" cy="431.3" rx="1.3" ry="1.7"/>
			<ellipse class="st36" cx="1460.8" cy="431.5" rx="0.5" ry="0.7"/>
			<ellipse class="st36" cx="1471.7" cy="431.3" rx="0.5" ry="0.7"/>
			<ellipse class="st37" cx="1462" cy="397.9" rx="0.8" ry="1"/>
			<path class="st37" d="M1467.4,398.3c0.8-0.3,1.6-0.2,2.3,0.1c0.4,0.2,0.5-0.6,0.2-0.7c-0.8-0.4-1.8-0.4-2.6-0.1
				c-0.2,0.1-0.2,0.3-0.2,0.5C1467.1,398.3,1467.2,398.4,1467.4,398.3z"/>
			<path class="st38" d="M1464.6,397.2h0.5c0.4,0,0.7,0.4,0.7,0.9v4.6c0,0.5-0.3,0.9-0.7,0.9h-0.5c-0.4,0-0.7-0.4-0.7-0.9V398
				C1463.9,397.5,1464.2,397.2,1464.6,397.2z"/>
			<path class="st39" d="M1466,395.4c1.2-0.4,2.4-0.3,3.6,0.1c0.4,0.1,0.5-0.6,0.2-0.7c-1.3-0.5-2.6-0.6-3.9-0.1
				C1465.4,394.8,1465.6,395.5,1466,395.4z"/>
			<path class="st39" d="M1462.7,395.4c-1.2-0.8-2.9-1.1-3.9,0.2c-0.3,0.3,0.1,0.9,0.4,0.5c0.8-1,2.3-0.7,3.2-0.1
				C1462.7,396.3,1463,395.6,1462.7,395.4L1462.7,395.4z"/>
			<path class="st39" d="M1463.9,383.3c-3.8,0.8-7.2,4.1-8.5,8.3c-1.2,3.9-0.7,8.2-0.9,12.4c-0.2,3.6-1,7.1-2.3,10.2
				c-0.5,1.3-1.2,2.8-0.6,4.2c0.6,1.4,2.1,1.8,3.4,1.6s2.5-0.9,3.8-1.1c0.7-0.1,1.6-0.2,1.9-1c-0.3-1.2-0.2-2.4,0.4-3.4
				c0.3-0.5,0.8-1.1,0.7-1.7c-0.1-0.3-0.2-0.5-0.3-0.7c-1.6-2.5-3.8-4.6-4.4-7.6c-0.3-1.4-0.3-2.8-0.2-4.2c0.1-2.7,0.2-5.5,0.9-8.1
				c0.7-2.6,2-5.1,4.1-6.5c0.7-0.5,1.6-0.9,2.1-1.6"/>
			<path class="st39" d="M1463.3,384.8c2.1,0.3,4,1.7,5.4,3.8c1.3,2.1,2.1,4.8,2.1,7.5c0,1.4-0.1,2.9-0.2,4.3c0,2.5,0.3,5-0.2,7.3
				c-0.3,1.1-0.8,2.2-1.2,3.2l-1.4,3c-0.3,0.7-0.7,1.4-0.7,2.2c-0.1,1.3,0.7,2.5,1.6,3.1s1.9,0.9,2.9,1.3c0.4,0.2,0.8,0.4,1.3,0.3
				c0.6-0.1,1-0.8,1.3-1.3l1.7-2.9c0.5-0.9,1.1-1.9,1.4-3c0.3-1.2,0.4-2.4,0.4-3.7c0.1-2.9,0.2-6-0.5-8.8c-0.4-1.4-0.9-2.8-1.2-4.2
				c-0.4-1.9-0.4-3.9-0.9-5.8c-0.5-2.1-1.5-3.9-2.9-5.2c-0.8-0.7-1.6-1.3-2.5-1.7c-3.2-1.5-6.9-1.6-9.8,0.6c0.9-0.6,2-0.6,3-0.2"/>
			<path d="M1462.1,397c-0.3-0.2-0.6-0.2-0.9-0.1c-0.3,0.2-0.6,0.6-1,0.6c-0.4,0-0.4,0.7,0,0.7c0.2,0,0.5-0.1,0.7-0.2
				c0.3-0.2,0.6-0.6,0.9-0.4S1462.4,397.3,1462.1,397L1462.1,397z"/>
			<ellipse class="st40" cx="1464.4" cy="406.1" rx="0.8" ry="1"/>
			<ellipse class="st41" cx="1465.3" cy="438.5" rx="0.5" ry="0.6"/>
			<path class="st47" d="M1456.4,361.1v16.2c0,1.1-0.7,2-1.5,2h-1c-0.9,0-1.5-0.9-1.5-2v-16.2c0-1.1,0.7-2,1.5-2h1
				C1455.7,359.1,1456.4,360,1456.4,361.1z"/>
			<path class="st48" d="M1519.9,326l-0.2,199.3c0,1.6-1,3-2.3,3l-117.7-0.2c-1.3,0-2.3-1.3-2.3-3l0.2-199.3c0-1.6,1-3,2.3-3
				l117.7,0.2C1518.9,323,1519.9,324.3,1519.9,326z"/>
		</g>
		<g id="Layer_2_2_">
			<ellipse class="st42" cx="1482" cy="408.4" rx="5.7" ry="39.2"/>

				<ellipse transform="matrix(0.4742 -0.8804 0.8804 0.4742 413.7655 1530.7943)" class="st42" cx="1488.5" cy="419" rx="13.4" ry="3.7"/>

				<ellipse transform="matrix(0.9501 -0.3119 0.3119 0.9501 -47.0192 479.0471)" class="st42" cx="1474.3" cy="386.5" rx="3.3" ry="18.7"/>
			<path class="st43" d="M1477.8,438.5h10.1c3.5,0,6.3,3.6,6.3,8.1v16.9c0,4.5-2.8,8.1-6.3,8.1h-10.1c-3.5,0-6.3-3.6-6.3-8.1v-16.9
				C1471.5,442.1,1474.3,438.5,1477.8,438.5z"/>
			<path class="st43" d="M1472.2,432.9h21.4c1.6,0,2.9,1.7,2.9,3.7v3.8c0,2-1.3,3.7-2.9,3.7h-21.4c-1.6,0-2.9-1.7-2.9-3.7v-3.8
				C1469.3,434.6,1470.6,432.9,1472.2,432.9z"/>
			<path class="st45" d="M1476.1,392.5L1476.1,392.5c0.2-2.4-0.4-3,2.2-1.7c32,15.1,29.5,30.7-4.2,34c-2.7,0.3-0.6-0.8-2.5-1.9
				c0.2,0,0.2,0,0-0.1c1.5-1.5-0.4-2.5,2.1-2.9c30.4-4.3,29-9.8,4.3-24C1476.1,394.7,1475.9,394.9,1476.1,392.5z"/>
			<path class="st45" d="M1471.8,390.4c0.1-1.3,0.3-2.6,0.7-3.8c0.9-2.6,2-3,4.1-2.9c0.4,0,0.9,0.2,1.2,0.5c2,1.4,2.7,3.3,3,6.3
				c0.1,1.2,0.1,3.3-0.3,4.3c-0.9,2.7-2,2.9-4.2,3.1c-0.5,0-1.5-0.3-1.9-0.7C1472.7,395.2,1471.8,393.5,1471.8,390.4z"/>
			<path class="st45" d="M1475.2,402.2c-0.1-1.3-0.2-3.3-0.1-4.6c0.1-1.2,0.6-1.7,1.4-1.3l0,0c0.8,0.3,1.2,1.2,1.3,2.3
				c0.1,1.4,0.1,2.8,0,4.2c-0.1,1.1-0.5,1.8-1.4,1.6l0,0C1475.5,404.2,1475.3,403.4,1475.2,402.2z"/>
			<path class="st45" d="M1467.7,388.3c0.1-0.1-0.1,0,0.2-0.3c0.2-0.3,0.6-0.8,1.1-0.5c1.4,0.8,3.1,1.5,4.4,2.6
				c0.5,0.4,0.7,0.9,0.6,1.6l0,0c-0.1,0.7-0.4,0.8-1,0.5c-1.5-0.9-3.2-1.7-4.8-2.6C1467.7,389.4,1467.7,388.9,1467.7,388.3z"/>
			<path class="st45" d="M1467.1,394.6c-0.2-0.3,0-0.1-0.2-0.3c0.2-0.6,0.2-1.2,0.8-1.3c1.7-0.3,3.4-0.2,5.1,0
				c0.6,0.1,0.9,0.4,1.2,1.1l0,0c0.2,0.6,0.1,1.3-0.5,1.3c-1.8-0.1-3.7-0.4-5.4,0C1467.6,395.4,1467.4,394.9,1467.1,394.6z"/>
			<path class="st45" d="M1469.4,383.4L1469.4,383.4c0.2-0.7,0.5-1.2,1.2-1c1.8,0.4,2.9,1.8,3.6,3.9c0.3,0.7,0.3,1.3,0,1.9
				c0.1,0.1,0.1,0.1,0,0c-0.3,0.6-0.7,0.3-0.9-0.3c-0.8-1.7-1.6-3-3.2-3.3C1469.5,384.4,1469.2,384.1,1469.4,383.4z"/>
			<path class="st45" d="M1473.3,379.2C1473.5,378.9,1473.2,379.2,1473.3,379.2c0.3-0.6,0.9-0.8,1.4-0.3c1,0.9,1.8,2.3,1.9,3.9
				c0.1,0.8-0.2,1.3-0.7,1.7l0,0c-0.5,0.4-0.7,0-0.8-0.6c-0.2-1.2-0.7-2.3-1.4-3.1C1473.3,380.4,1473,379.9,1473.3,379.2z"/>
			<ellipse class="st32" cx="1464.9" cy="399.4" rx="9.2" ry="15.9"/>
			<path class="st33" d="M1462.5,474.8c-0.9,0.1-1.8,0.1-2.6,0c-6-1-9.9-6.3-8.8-13.8c1.3-9,2.5-22.9,4.8-30.6
				c1.9-6.5-5.4-9.5,6.4-12.6c1.6-0.4,2.3-0.4,3.1-0.4c6.1,0.2,9.5,4.9,8.8,12.4c-0.8,9-4.3,23.8-4,32.1
				C1470.5,468.6,1468.2,473.9,1462.5,474.8z"/>
			<path class="st33" d="M1466.6,419.1c-1.6,0.5-3.2,0.5-4.7-0.1c-1.3-0.5-1.5-1.7-1.3-3.2c0-0.1,0-0.2,0.1-0.3
				c0.4-1.1,1.1-2.2,2.1-1.7c1.1,0.5,1.7,0.6,2.9,0.1c1-0.4,1.9,0.6,2.3,1.8c0,0.1,0.1,0.2,0.1,0.3
				C1468.1,417.5,1467.9,418.7,1466.6,419.1z"/>
			<path class="st46" d="M1448.8,458.5L1448.8,458.5c-0.6,0.9-0.8,1.3-2.3,0.2c-18.1-14.5-6.6-24.3,8.7-38.3c1.2-1.1,1.8-0.8,2.4,0
				l0,0c0.6,0.7,1.1,1.4-0.2,2.5c-15.6,14-23.5,19.4-9.1,32.9C1449.6,456.8,1449.4,457.6,1448.8,458.5z"/>
			<path class="st46" d="M1452.3,460c-0.5,0.6-1.2,1.3-1.8,1.8c-1.5,1.4-3.1,1.5-4.7,0.2c-0.4-0.3-1-0.9-1.3-1.2
				c-1.3-1.2-1.2-2.2-0.2-3.6c0.4-0.5,1.4-1.8,1.8-2.3c1.1-1.3,3.1-2.9,4.4-1c0.3,0.4,0.8,1.2,1.1,1.5
				C1453,456.8,1453.7,458.5,1452.3,460z"/>
			<path class="st46" d="M1453.6,454c-1,0.1-1.9,0.3-2.4,1.1c-0.4,0.7-1.1,0.6-1.5,0l0,0c-0.4-0.6-0.4-1.4,0.2-2.1
				c0.7-0.8,2.2-1.4,3.2-1.5c0.9-0.1,1.4,0.4,1.5,1.1l0,0C1454.8,453.4,1454.4,454,1453.6,454z"/>
			<path class="st46" d="M1454.5,463.2L1454.5,463.2c-0.4,0.3-0.9,0.2-1.2-0.2c-0.9-1.1-1.5-2.3-2.6-3.1c-0.4-0.3-0.3-0.7,0-1l0,0
				c0.3-0.3,0.8-0.4,1.2-0.1c1.2,0.8,2.1,2.1,2.9,3.3C1455,462.6,1454.9,463,1454.5,463.2z"/>
			<path class="st46" d="M1457.4,458.7L1457.4,458.7c-0.1,0.4-0.6,0.7-1.1,0.6c-1.4-0.5-2.7-1-4.2-0.8c-0.4,0.1-0.7-0.3-0.8-0.7l0,0
				c-0.1-0.4,0-0.8,0.3-1c0.1,0,0.2-0.1,0.3,0c1.7,0.1,3.3,0.4,4.9,1C1457.3,457.9,1457.5,458.4,1457.4,458.7z"/>
			<path class="st46" d="M1451.7,465.9L1451.7,465.9c-0.3,0.2-0.9,0.1-1.1-0.4c-0.5-1.3-1.5-2.7-2-4c-0.2-0.5,0.2-0.7,0.5-0.8l0,0
				c0.3-0.1,0.9-0.2,1,0.3c0.5,1.3,1.5,2.5,2,3.8C1452.3,465.3,1452.1,465.7,1451.7,465.9z"/>
			<path class="st46" d="M1447,467.3L1447,467.3c-0.5,0-0.9-0.3-0.9-0.8c-0.1-1.1-0.2-2.6-0.3-3.7c0-0.6,0.3-0.9,0.8-0.9l0,0
				c0.5,0,0.9,0.3,0.9,0.8c0.1,1.1,0.2,2.5,0.3,3.6C1447.8,466.9,1447.5,467.2,1447,467.3z"/>
			<path class="st34" d="M1476,432c-0.2,3.3-2.3,5.9-4.8,5.2c-2.5-0.7-4.2-2.9-4-6c0.2-3.1,2.3-5,4.7-5.1
				C1474.3,426,1476.2,428.7,1476,432z"/>
			<ellipse class="st34" cx="1460.2" cy="431.4" rx="4.7" ry="5.2"/>
			<ellipse class="st35" cx="1460.8" cy="431.3" rx="1.3" ry="1.7"/>
			<ellipse class="st35" cx="1471.7" cy="431.3" rx="1.3" ry="1.7"/>
			<ellipse class="st36" cx="1460.8" cy="431.5" rx="0.5" ry="0.7"/>
			<ellipse class="st36" cx="1471.7" cy="431.3" rx="0.5" ry="0.7"/>
			<ellipse class="st37" cx="1462" cy="397.9" rx="0.8" ry="1"/>
			<path class="st37" d="M1467.4,398.3c0.8-0.3,1.6-0.2,2.3,0.1c0.4,0.2,0.5-0.6,0.2-0.7c-0.8-0.4-1.8-0.4-2.6-0.1
				c-0.2,0.1-0.2,0.3-0.2,0.5C1467.1,398.3,1467.2,398.4,1467.4,398.3z"/>
			<path class="st38" d="M1464.6,397.2h0.5c0.4,0,0.7,0.4,0.7,0.9v4.6c0,0.5-0.3,0.9-0.7,0.9h-0.5c-0.4,0-0.7-0.4-0.7-0.9V398
				C1463.9,397.5,1464.2,397.2,1464.6,397.2z"/>
			<path class="st39" d="M1466,395.4c1.2-0.4,2.4-0.3,3.6,0.1c0.4,0.1,0.5-0.6,0.2-0.7c-1.3-0.5-2.6-0.6-3.9-0.1
				C1465.4,394.8,1465.6,395.5,1466,395.4z"/>
			<path class="st39" d="M1462.7,395.4c-1.2-0.8-2.9-1.1-3.9,0.2c-0.3,0.3,0.1,0.9,0.4,0.5c0.8-1,2.3-0.7,3.2-0.1
				C1462.7,396.3,1463,395.6,1462.7,395.4L1462.7,395.4z"/>
			<path class="st39" d="M1463.9,383.3c-3.8,0.8-7.2,4.1-8.5,8.3c-1.2,3.9-0.7,8.2-0.9,12.4c-0.2,3.6-1,7.1-2.3,10.2
				c-0.5,1.3-1.2,2.8-0.6,4.2c0.6,1.4,2.1,1.8,3.4,1.6s2.5-0.9,3.8-1.1c0.7-0.1,1.6-0.2,1.9-1c-0.3-1.2-0.2-2.4,0.4-3.4
				c0.3-0.5,0.8-1.1,0.7-1.7c-0.1-0.3-0.2-0.5-0.3-0.7c-1.6-2.5-3.8-4.6-4.4-7.6c-0.3-1.4-0.3-2.8-0.2-4.2c0.1-2.7,0.2-5.5,0.9-8.1
				c0.7-2.6,2-5.1,4.1-6.5c0.7-0.5,1.6-0.9,2.1-1.6"/>
			<path class="st39" d="M1463.3,384.8c2.1,0.3,4,1.7,5.4,3.8c1.3,2.1,2.1,4.8,2.1,7.5c0,1.4-0.1,2.9-0.2,4.3c0,2.5,0.3,5-0.2,7.3
				c-0.3,1.1-0.8,2.2-1.2,3.2l-1.4,3c-0.3,0.7-0.7,1.4-0.7,2.2c-0.1,1.3,0.7,2.5,1.6,3.1s1.9,0.9,2.9,1.3c0.4,0.2,0.8,0.4,1.3,0.3
				c0.6-0.1,1-0.8,1.3-1.3l1.7-2.9c0.5-0.9,1.1-1.9,1.4-3c0.3-1.2,0.4-2.4,0.4-3.7c0.1-2.9,0.2-6-0.5-8.8c-0.4-1.4-0.9-2.8-1.2-4.2
				c-0.4-1.9-0.4-3.9-0.9-5.8c-0.5-2.1-1.5-3.9-2.9-5.2c-0.8-0.7-1.6-1.3-2.5-1.7c-3.2-1.5-6.9-1.6-9.8,0.6c0.9-0.6,2-0.6,3-0.2"/>
			<path d="M1462.1,397c-0.3-0.2-0.6-0.2-0.9-0.1c-0.3,0.2-0.6,0.6-1,0.6c-0.4,0-0.4,0.7,0,0.7c0.2,0,0.5-0.1,0.7-0.2
				c0.3-0.2,0.6-0.6,0.9-0.4S1462.4,397.3,1462.1,397L1462.1,397z"/>
			<ellipse class="st40" cx="1464.4" cy="406.1" rx="0.8" ry="1"/>
			<ellipse class="st41" cx="1462.7" cy="458.1" rx="0.5" ry="0.6"/>
		</g>
	</g>
	<path class="st8" d="M1401.1,433l-45.1-10.4c-6.7-1.5-10.9-8.1-9.3-14.5l0.3-1.3c1.6-6.4,8.4-10.4,15.1-8.9l45.1,10.4
		c6.7,1.5,10.9,8.1,9.3,14.5l-0.3,1.3C1414.7,430.5,1407.9,434.5,1401.1,433z"/>
	<path class="st8" d="M1386.4,466.2l-28.8-5.3c-6.8-1.3-11.2-7.6-9.9-14.1v0c1.3-6.5,7.9-10.8,14.7-9.5l28.8,5.3
		c6.8,1.3,11.2,7.6,9.9,14.1v0C1399.8,463.2,1393.2,467.4,1386.4,466.2z"/>
	<path class="st9" d="M1378.9,452.7L1378.9,452.7c1.2-4.5,1.3-4.4,2.3-8.1l9.4,2.4c4.5,1.1,7.2,5.7,5.9,10.1l0,0
		c-1.2,4.5-5.9,7.2-10.4,6.1l-9.4-2.4C1377.7,457.2,1377.7,457.2,1378.9,452.7z"/>
	<path class="st9" d="M1393.9,417.3L1393.9,417.3c1.2-4.5,1.3-4.4,2.3-8.1l9.4,2.4c4.5,1.1,7.2,5.7,5.9,10.1v0
		c-1.2,4.5-5.9,7.2-10.4,6.1l-9.4-2.4C1392.6,421.8,1392.6,421.8,1393.9,417.3z"/>
</g>
<g id="Layer_4">
</g>
</svg>
